<svg width="48" height="48" xmlns="http://www.w3.org/2000/svg"><path d="M22.493 22.697l19.654-12.076-1.312 7.07c-.72 2.72-3.416 6.867-5.582 8.579-1.119.883-3.87 2.67-7.745 5.03a2.22 2.22 0 01-2.997-.655l-6.852-10.324a10.727 10.727 0 00-6.882-4.619 10.728 10.728 0 00-8.129 1.62L0 19.095l14.4 20.942a13.586 13.586 0 0010.772 5.864h19.107l-7.936-12.129-3.514 2.3 3.685 5.63h-11.25a9.374 9.374 0 01-7.404-4.044L5.915 20.289a6.55 6.55 0 014.04-.47 6.556 6.556 0 014.206 2.824l6.855 10.33.008.011a6.41 6.41 0 008.667 1.901c4.134-2.516 6.88-4.306 8.164-5.32 2.907-2.296 6.142-7.286 7.065-10.898l.017-.068L48 2.098 20.295 19.12l2.198 3.577z" fill="#221781" fill-rule="evenodd"/></svg>