<svg width="48" height="48" xmlns="http://www.w3.org/2000/svg"><path d="M40.5 33c4.14 0 7.5 3.36 7.5 7.5 0 4.14-3.36 7.5-7.5 7.5-4.14 0-7.5-3.36-7.5-7.5 0-4.14 3.36-7.5 7.5-7.5zM34.138.42a.532.532 0 01.52-.42h13.14a.201.201 0 01.182.288L25.425 47.716a.498.498 0 01-.45.284h-.555a.498.498 0 01-.487-.605L34.138.42zm-7.578 0a.532.532 0 01.52-.42h3.988a.531.531 0 01.52.646L21.385 47.607a.498.498 0 01-.487.393h-4.058a.498.498 0 01-.486-.605L26.56.42zM22.566.303a.531.531 0 01.48-.304h.416a.531.531 0 01.52.646L13.78 47.607a.498.498 0 01-.486.393H.2a.201.201 0 01-.182-.288L22.566.303zM7.5 0C11.64 0 15 3.36 15 7.5c0 4.14-3.36 7.5-7.5 7.5C3.36 15 0 11.64 0 7.5 0 3.36 3.36 0 7.5 0z" fill="#662892" fill-rule="evenodd"/></svg>