<svg width="48" height="48" xmlns="http://www.w3.org/2000/svg"><g fill="none" fill-rule="evenodd"><path d="M4.31 31.466L12 44.785h5.734l-7.66-13.206 1.461-2.53 9.086 15.736H36l2.87-4.972-15.287.006L14.45 24l3.325-5.76h-5.83L4.31 31.467zm36 5.853L48 24l-2.867-4.966-7.606 13.236h-2.922l9.085-15.736L36 3.215h-5.741l7.649 13.236-9.133 15.82h-6.65l2.914 5.048H40.31zM25.86 10.68L24.4 8.151l-15.266.03L12 3.215h15.38l7.635 13.226-2.915 5.048-3.325-5.76H10.509L2.87 28.973 0 24l7.69-13.319h18.17z" fill="#B11116"/><path d="M24 18.26a5.832 5.832 0 015.829 5.83A5.832 5.832 0 0124 29.917a5.832 5.832 0 01-5.829-5.829A5.832 5.832 0 0124 18.26z" fill="#00A1BF"/></g></svg>