<svg width="48" height="48" xmlns="http://www.w3.org/2000/svg"><path d="M11.36 22.06C8.409 22.06 6 19.596 6 16.572s2.408-5.49 5.36-5.49c2.953 0 5.361 2.466 5.361 5.49s-2.408 5.49-5.36 5.49zm25.28.102c-2.953 0-5.361-2.467-5.361-5.49 0-3.024 2.408-5.49 5.36-5.49 2.953 0 5.361 2.466 5.361 5.49 0 3.023-2.408 5.49-5.36 5.49zm-12.59 7.253c-2.953 0-5.361-2.467-5.361-5.49 0-3.024 2.408-5.49 5.36-5.49 2.953 0 5.36 2.466 5.36 5.49 0 3.023-2.407 5.49-5.36 5.49zm0-14.607c-3.983 0-7.23-3.326-7.23-7.404C16.82 3.326 20.067 0 24.05 0c3.981 0 7.229 3.326 7.229 7.404 0 4.078-3.248 7.404-7.23 7.404zM13.23 33.041c-1.924 0-3.492-1.606-3.492-3.576s1.568-3.576 3.491-3.576c1.924 0 3.492 1.606 3.492 3.576s-1.568 3.576-3.492 3.576zm21.688 0c-1.923 0-3.492-1.606-3.492-3.576s1.569-3.576 3.492-3.576 3.492 1.606 3.492 3.576-1.569 3.576-3.492 3.576zM24 40.495c-1.923 0-3.492-1.606-3.492-3.576s1.569-3.576 3.492-3.576 3.492 1.607 3.492 3.576c0 1.97-1.569 3.576-3.492 3.576zm-8.902 3.828c-1.002 0-1.82-.837-1.82-1.864 0-1.026.818-1.863 1.82-1.863 1.003 0 1.82.837 1.82 1.863 0 1.027-.817 1.864-1.82 1.864zm18.05 0c-1.003 0-1.82-.837-1.82-1.864 0-1.026.817-1.863 1.82-1.863 1.002 0 1.82.837 1.82 1.863 0 1.027-.818 1.864-1.82 1.864zM24.098 48c-1.002 0-1.82-.837-1.82-1.864 0-1.026.818-1.863 1.82-1.863 1.003 0 1.82.837 1.82 1.863 0 1.027-.817 1.864-1.82 1.864z" fill="#324C88" fill-rule="evenodd"/></svg>