<svg xmlns="http://www.w3.org/2000/svg" width="262.739" height="164.212" viewBox="0 0 197.054 123.159" fill-rule="evenodd"><path d="M11.595 0h173.864c6.377 0 11.595 5.218 11.595 11.596v99.968c0 6.377-5.218 11.595-11.595 11.595H11.595C5.217 123.159 0 117.941 0 111.564V11.596C0 5.218 5.217 0 11.595 0z" fill="#273785"/><path d="M22.332 30.829h51.79c.874 0 1.622.664 1.893 1.581h116.923v1.518H76.015c-.271.918-1.019 1.582-1.893 1.582h-51.79c-1.102 0-2.004-1.053-2.004-2.341 0-1.287.901-2.34 2.004-2.34zm170.606-7.889v1.518H61.381c-.271.918-1.019 1.582-1.893 1.582H36.965c-1.101 0-2.004-1.053-2.004-2.341 0-1.287.901-2.34 2.004-2.34h22.523c.875 0 1.622.663 1.894 1.581zm0 18.941v1.517H83.385c-.272.918-1.021 1.582-1.895 1.582H14.962c-1.102 0-2.003-1.053-2.003-2.34 0-1.288.901-2.341 2.003-2.341H81.49c.875 0 1.623.664 1.895 1.582zm0 9.469v1.519H87.49c-.272.918-1.02 1.581-1.895 1.581H10.856c-1.102 0-2.003-1.053-2.003-2.34s.901-2.341 2.003-2.341h74.739c.875 0 1.623.664 1.895 1.581zm0 9.471v1.518H92.228c-.272.918-1.02 1.581-1.894 1.581H6.118c-1.1 0-2.002-1.053-2.002-2.34 0-1.288.902-2.341 2.002-2.341h84.216c.874 0 1.623.664 1.894 1.582zm0 9.47v1.518H87.49a2.693 2.693 0 000-1.518zM87.49 71.809h-.379v-1.518h.379c-.272-.918-1.02-1.581-1.895-1.581H10.856c-1.102 0-2.003 1.053-2.003 2.34 0 1.288.901 2.341 2.003 2.341h74.739c.875 0 1.623-.664 1.895-1.582zm105.448 7.952v1.519H83.385a2.7 2.7 0 00-.001-1.519zM83.385 81.28h-.35v-1.519h.349c-.271-.918-1.02-1.581-1.894-1.581H14.962c-1.102 0-2.003 1.053-2.003 2.34 0 1.288.901 2.341 2.003 2.341H81.49c.875 0 1.623-.664 1.895-1.581zm109.553 7.952v1.518H76.015c.071-.239.109-.494.109-.759 0-.266-.038-.521-.109-.759zM76.015 90.75h-.457v-1.518h.457c-.271-.918-1.019-1.582-1.893-1.582h-51.79c-1.102 0-2.004 1.053-2.004 2.341 0 1.287.901 2.34 2.004 2.34h51.79c.875 0 1.622-.664 1.893-1.581zm116.923 7.951v1.519H61.382a2.698 2.698 0 00-.001-1.519zM61.382 100.22h-.128v-1.519h.127c-.271-.917-1.019-1.581-1.893-1.581H36.965c-1.101 0-2.004 1.053-2.004 2.341 0 1.287.901 2.34 2.004 2.34h22.523c.875 0 1.622-.664 1.894-1.581z" fill="#fff"/></svg>