<svg width="300" height="300" viewBox="0 0 48 48" fill="none" xmlns="http://www.w3.org/2000/svg"><path fill-rule="evenodd" clip-rule="evenodd" d="M16.5 12a1 1 0 01.936.649l3.5 9.333a1 1 0 01-1.872.703L16.5 15.848l-2.564 6.836a1 1 0 11-1.872-.702l3.5-9.333A1 1 0 0116.5 12z" fill="#8a0303"/><path fill-rule="evenodd" clip-rule="evenodd" d="M13.556 19h5.888v2h-5.888v-2zM31 18a1 1 0 011-1h6a1 1 0 110 2h-6a1 1 0 01-1-1z" fill="#8a0303"/><path fill-rule="evenodd" clip-rule="evenodd" d="M18.386 5.334a5 5 0 017.228 0l.528.552h5.188a4.67 4.67 0 014.67 4.67V14h-2v-3.444a2.67 2.67 0 00-2.67-2.67h-5.616a1 1 0 01-.723-.31l-.822-.86a3 3 0 00-4.338 0l-.822.86a1 1 0 01-.723.31H13a3 3 0 00-3 3V33a3 3 0 003 3h18a3 3 0 003-3V22h2v11a5 5 0 01-5 5H13a5 5 0 01-5-5V10.886a5 5 0 015-5h4.858l.528-.552z" fill="#8a0303"/><path fill-rule="evenodd" clip-rule="evenodd" d="M21 44v-8h2v8h-2z" fill="#8a0303"/><path fill-rule="evenodd" clip-rule="evenodd" d="M28 40H16v-2h12v2zM32.069 27.642c-1.294-.753-3.155-1.2-5.56.22-2.958 1.744-5.743 2.197-8.585 2.257-1.234.026-2.494-.022-3.77-.07l-.527-.02c-1.468-.054-2.977-.097-4.585-.03l-.084-1.998c1.692-.07 3.268-.025 4.742.03l.53.02c1.284.048 2.48.093 3.652.069 2.627-.056 5.042-.466 7.61-1.981 3.118-1.84 5.758-1.288 7.583-.226a8.997 8.997 0 012.027 1.634 8.719 8.719 0 01.673.816l.04.057.012.018.005.006.002.004L35 29l-.834.552-.001-.002a2.55 2.55 0 00-.117-.16 7.004 7.004 0 00-1.979-1.748zM26.588 15.25c0-.655-.563-1.25-1.338-1.25v-2c1.807 0 3.338 1.42 3.338 3.25s-1.531 3.25-3.338 3.25v-2c.775 0 1.338-.595 1.338-1.25z" fill="#8a0303"/><path fill-rule="evenodd" clip-rule="evenodd" d="M26.588 19.75c0-.655-.563-1.25-1.338-1.25v-2c1.807 0 3.338 1.42 3.338 3.25S27.057 23 25.25 23v-2c.775 0 1.338-.595 1.338-1.25zM22 12h3.25v2H24v7h1.25v2H22V12z" fill="#8a0303"/><path fill-rule="evenodd" clip-rule="evenodd" d="M23 16.5h3.75v2H23v-2z" fill="#8a0303"/></svg>
