<svg width="300" height="300" viewBox="0 0 48 48" fill="none" xmlns="http://www.w3.org/2000/svg"><path fill-rule="evenodd" clip-rule="evenodd" d="M17.5 12a1 1 0 01.936.649l3.5 9.333a1 1 0 01-1.872.703L17.5 15.848l-2.564 6.836a1 1 0 01-1.872-.702l3.5-9.333A1 1 0 0117.5 12z" fill="#8a0303"/><path fill-rule="evenodd" clip-rule="evenodd" d="M14.556 19h5.889v2h-5.89v-2zM32 18a1 1 0 011-1h6a1 1 0 110 2h-6a1 1 0 01-1-1z" fill="#8a0303"/><path fill-rule="evenodd" clip-rule="evenodd" d="M36 22a1 1 0 01-1-1v-6a1 1 0 112 0v6a1 1 0 01-1 1z" fill="#8a0303"/><path fill-rule="evenodd" clip-rule="evenodd" d="M19.386 5.334a5 5 0 017.228 0l.528.552h5.188a4.67 4.67 0 014.67 4.67V12h-2v-1.444a2.67 2.67 0 00-2.67-2.67h-5.616a1 1 0 01-.723-.31l-.822-.86a3 3 0 00-4.338 0l-.822.86a1 1 0 01-.723.31H14a3 3 0 00-3 3V33a3 3 0 003 3h18a3 3 0 003-3v-9h2v9a5 5 0 01-5 5H14a5 5 0 01-5-5V10.886a5 5 0 015-5h4.858l.528-.552z" fill="#8a0303"/><path fill-rule="evenodd" clip-rule="evenodd" d="M22 44v-8h2v8h-2z" fill="#8a0303"/><path fill-rule="evenodd" clip-rule="evenodd" d="M29 40H17v-2h12v2zM33.069 27.642c-1.294-.753-3.155-1.2-5.56.22-2.958 1.744-5.743 2.197-8.585 2.257-1.234.026-2.495-.022-3.771-.07l-.526-.02c-1.468-.054-2.977-.097-4.585-.03l-.084-1.998c1.692-.07 3.268-.025 4.742.03l.53.02c1.284.048 2.48.093 3.652.069 2.627-.056 5.042-.466 7.61-1.981 3.118-1.84 5.758-1.288 7.583-.226a8.999 8.999 0 012.027 1.634 8.745 8.745 0 01.673.816l.04.057.012.018.005.006.002.004L36 29l-.834.552-.001-.002a6.75 6.75 0 00-.525-.639 7.004 7.004 0 00-1.571-1.27zM27.588 15.25c0-.655-.563-1.25-1.338-1.25v-2c1.807 0 3.338 1.42 3.338 3.25s-1.531 3.25-3.338 3.25v-2c.775 0 1.338-.595 1.338-1.25z" fill="#8a0303"/><path fill-rule="evenodd" clip-rule="evenodd" d="M27.588 19.75c0-.655-.563-1.25-1.338-1.25v-2c1.807 0 3.338 1.42 3.338 3.25S28.057 23 26.25 23v-2c.775 0 1.338-.595 1.338-1.25zM23 12h3.25v2H25v7h1.25v2H23V12z" fill="#8a0303"/><path fill-rule="evenodd" clip-rule="evenodd" d="M24 16.5h3.75v2H24v-2z" fill="#8a0303"/></svg>
