<svg width="300" height="300" viewBox="0 0 48 48" fill="none" xmlns="http://www.w3.org/2000/svg"><path fill-rule="evenodd" clip-rule="evenodd" d="M31 18a1 1 0 011-1h6a1 1 0 110 2h-6a1 1 0 01-1-1z" fill="#8a0303"/><path fill-rule="evenodd" clip-rule="evenodd" d="M18.386 5.334a5 5 0 017.228 0l.528.552h5.188a4.67 4.67 0 014.67 4.67V14h-2v-3.444a2.67 2.67 0 00-2.67-2.67h-5.616a1 1 0 01-.723-.31l-.822-.86a3 3 0 00-4.338 0l-.822.86a1 1 0 01-.723.31H13a3 3 0 00-3 3V33a3 3 0 003 3h18a3 3 0 003-3V22h2v11a5 5 0 01-5 5H13a5 5 0 01-5-5V10.886a5 5 0 015-5h4.858l.528-.552z" fill="#8a0303"/><path fill-rule="evenodd" clip-rule="evenodd" d="M21 44v-8h2v8h-2z" fill="#8a0303"/><path fill-rule="evenodd" clip-rule="evenodd" d="M28 40H16v-2h12v2zM32.069 27.642c-1.294-.753-3.155-1.2-5.56.22-2.958 1.744-5.743 2.197-8.585 2.257-1.234.026-2.495-.021-3.771-.07l-.526-.02c-1.468-.054-2.977-.097-4.585-.03l-.084-1.998c1.692-.07 3.268-.025 4.742.03l.53.02c1.284.048 2.48.094 3.652.069 2.627-.056 5.042-.466 7.61-1.981 3.118-1.84 5.758-1.287 7.583-.226a8.993 8.993 0 012.027 1.634 8.745 8.745 0 01.673.816l.04.057.012.018.005.007.002.003L35 29l-.834.552-.001-.002a6.775 6.775 0 00-.525-.639 6.998 6.998 0 00-1.571-1.269zM22 12a1 1 0 011 1v10a1 1 0 11-2 0V13a1 1 0 011-1zM13 12a1 1 0 011 1v10a1 1 0 11-2 0V13a1 1 0 011-1zM28 12a1 1 0 011 1v10a1 1 0 11-2 0V13a1 1 0 011-1z" fill="#8a0303"/><path fill-rule="evenodd" clip-rule="evenodd" d="M21 18a1 1 0 011-1h6a1 1 0 110 2h-6a1 1 0 01-1-1zM13.22 18.375a1 1 0 011.405-.156l5 4a1 1 0 01-1.25 1.562l-5-4a1 1 0 01-.156-1.406z" fill="#8a0303"/><path fill-rule="evenodd" clip-rule="evenodd" d="M13 12h3a4 4 0 010 8h-3v-2h3a2 2 0 100-4h-3v-2z" fill="#8a0303"/></svg>
