<svg xmlns="http://www.w3.org/2000/svg" viewBox="0 0 192.87 68.33"><defs><style>.cls-1{fill:#231f20}</style></defs><g id="Layer_2" data-name="Layer 2"><g id="brand"><g id="logo--color-black--without_text"><path class="cls-1" d="M40.6 35.6c0 5.43-6 4.61-6 4.61H10.81c-3.72 0-4.57-2.93-4.57-5.6v-3.95L0 35.62V37c0 6.77 3.38 9.22 10.93 9.22H37.2c5.08 0 9.61-3.47 9.61-8.44v-13l-6.21 5.96zM49.65 46.24h6.32V17.13l-6.32 5.94v23.17zM63.07 42.63c0 4-2.18 6.2-6.34 6.2l4.07 6.11c2.31 0 8.62-1.65 8.62-12.84V24.3l-6.35 6.36zM79.67 46.25h10.38a7.57 7.57 0 006.24-2.76 9 9 0 001.94-6v-11.7l-6.33 5.86v4.12q0 4.43-3.2 4.43H78.3s.07-3 .07-4.7V16.66L72 22.61v16.18q0 7.46 7.67 7.46zM100.83 46.24h6.33V16.8l-6.33 5.6v23.84zM103.75 8.31c-9.37 0-11.85 6.31-11.85 8.62l6.3 4c0-4.16 1.05-6.24 5-6.24h6.21l6.36-6.35z"/><path class="cls-1" d="M21.43 24.31H6.19v6.33h21.19l-5.95-6.33zM91.39 56.79l5.31-5c-.06-.08-.1-.16-.16-.23a7.57 7.57 0 00-6.24-2.76H72.9l6.43 6h8.87a3.9 3.9 0 013.19 1.99z"/><path class="cls-1" d="M83.94 55.81h4a3.36 3.36 0 012.69 1.65l-2.43 2.45zM154 2L147.74.36a10.58 10.58 0 00-12.94 7.51l-1.58 5.93A32.4 32.4 0 01154 2zM126.44 39.33l-1.54 5.8a10.58 10.58 0 007.51 12.94l6 1.6a32.41 32.41 0 01-11.97-20.34zM185 10.25l-6.74-1.79a32.4 32.4 0 0112.4 21.7l1.85-7A10.58 10.58 0 00185 10.25zM163.23 66.26l6.45 1.74a10.58 10.58 0 0012.94-7.51l1.82-6.84a32.42 32.42 0 01-21.21 12.61z"/><path d="M158.71 4.54a29.63 29.63 0 1029.63 29.63 29.63 29.63 0 00-29.63-29.63zm-16.78 14.78a8.46 8.46 0 116.71 9.91 8.46 8.46 0 01-6.71-9.91zm12.31 25.6a8.46 8.46 0 11-6.71-9.92 8.46 8.46 0 016.71 9.92zm3.59-6.85a3.76 3.76 0 114.41-3 3.76 3.76 0 01-4.41 3zM175.48 49a8.46 8.46 0 11-6.71-9.91 8.46 8.46 0 016.71 9.91zm-5.6-15.68a8.46 8.46 0 119.91-6.71 8.46 8.46 0 01-9.91 6.72z" fill="#ed145b"/></g></g></g></svg>