<!DOCTYPE svg PUBLIC "-//W3C//DTD SVG 1.1//EN" "http://www.w3.org/Graphics/SVG/1.1/DTD/svg11.dtd">
<svg xmlns="http://www.w3.org/2000/svg" viewBox="0 0 512 512">
<path fill="#fbd34b" stroke="#fbd34b" d="M54 2.045C28.293 8.678 8.483 28.664 1.989 54.517 0 62.436-.021 64.956.238 258.517L.5 454.5l2.653 7.778c7.514 22.034 24.535 39.055 46.569 46.569L57.5 511.5h397l7.778-2.653c22.796-7.774 40.816-26.398 46.781-48.347 1.196-4.4 2.572-8.781 3.058-9.736 1.025-2.015 1.232-391.447.208-390.422-.371.371-1.492-2.592-2.49-6.584-6.305-25.209-26.513-45.227-52.245-51.752C445.414-1.082 65.976-1.045 54 2.045M.49 256c0 107.525.117 151.512.26 97.75.143-53.763.143-141.738 0-195.5C.607 104.487.49 148.475.49 256M243 215.875c-30.087 9.668-39.073 48.39-16.296 70.222C253.743 312.015 298 293.332 298 256c0-28.579-27.805-48.864-55-40.125" fill-rule="evenodd"/>
<path fill="#fc7c04" stroke="#fc7c04" d="M56.5 1.636C30.088 7.193 6.946 30.601 1.56 57.208c-2.369 11.703-2.369 385.881 0 397.584 5.458 26.963 28.685 50.19 55.648 55.648 11.703 2.369 385.881 2.369 397.584 0 26.21-5.306 50.348-28.887 55.215-53.94.641-3.3 1.577-6.781 2.079-7.736 1.126-2.14 1.253-387.092.128-386.396-.432.267-1.35-2.519-2.039-6.191-4.781-25.48-28.888-49.254-55.383-54.617C443.475-.731 67.408-.659 56.5 1.636M.49 256c0 106.425.117 149.963.26 96.75.143-53.212.143-140.287 0-193.5C.607 106.038.49 149.575.49 256m127.779-55.309c.346 64.814.58 73.633 2.132 80.309 19.197 82.586 101.975 124.681 179.055 91.056 25.143-10.968 51.632-37.457 62.6-62.6 33.625-77.08-8.47-159.858-91.056-179.055-6.676-1.552-15.495-1.786-80.309-2.132l-72.81-.388.388 72.81m112.066-28.661c-30.04 5.401-54.986 27.48-65.499 57.97-4.94 14.327-4.94 37.673 0 52 9.452 27.413 27.751 45.712 55.164 55.164 14.327 4.94 37.673 4.94 52 0 27.413-9.452 45.712-27.751 55.164-55.164 3.184-9.236 3.275-9.958 3.275-26s-.091-16.764-3.275-26c-9.469-27.46-27.996-45.958-55.164-55.076-10.432-3.502-30.523-4.897-41.665-2.894m4.614 42.796c-30.721 8.021-41.924 46.175-20.514 69.866 23.32 25.804 65.836 14.155 73.264-20.074 6.716-30.952-21.802-57.872-52.75-49.792" fill-rule="evenodd"/>
<path fill="#7c6cf3" stroke="#7c6cf3" d="M58 1.56C28.853 7.841 7.514 29.266 1.58 58.208c-2.404 11.726-2.404 383.858 0 395.584 5.959 29.064 27.501 50.6 56.635 56.617 11.685 2.414 383.808 2.424 395.577.011 28.339-5.81 50.753-27.721 56.183-54.92.658-3.3 1.609-6.781 2.111-7.736 1.126-2.139 1.253-385.092.128-384.396-.432.267-1.339-2.434-2.016-6.002-5.243-27.635-27.77-49.915-56.406-55.786C442.828-.668 68.426-.687 58 1.56M.49 256c0 105.875.117 149.188.26 96.25.143-52.937.143-139.562 0-192.5C.607 106.813.49 150.125.49 256M128 198.369c0 78.065.068 79.087 6.559 98.504 22.451 67.158 94.698 102.876 162.285 80.233 37.306-12.499 67.763-42.956 80.262-80.262 22.643-67.587-13.075-139.834-80.233-162.285-19.417-6.491-20.439-6.559-98.504-6.559H128v70.369" fill-rule="evenodd"/>
<path fill="#241c54" stroke="#241c54" d="M63 .98C34.403 4.711 11.295 24.725 2.921 53.016.876 59.926.672 63.089.254 94.25L-.198 128H128V0L98.25.131C81.887.203 66.025.585 63 .98m321 132.745c0 146.001.142 142.004-5.709 160.775-12.067 38.714-45.077 71.724-83.791 83.791-18.771 5.851-14.774 5.709-160.775 5.709H-.198l.452 33.75c.418 31.161.622 34.324 2.667 41.234 7.394 24.978 25.502 42.939 50.624 50.213L61.5 511.5h389l7.955-2.303c20.131-5.829 35.508-18.208 44.98-36.213 3.845-7.308 7.565-19.609 7.565-25.014 0-1.963.381-3.997.848-4.52.466-.522.546-86.9.177-191.95l-.67-191-2.246-7.484c-7.459-24.857-25.385-42.771-50.125-50.095C452.074.876 448.911.672 417.75.254L384-.198v133.923M.444 414c0 16.775.137 23.637.304 15.25.167-8.387.167-22.113 0-30.5S.444 397.225.444 414" fill-rule="evenodd"/>
</svg>