<svg xmlns="http://www.w3.org/2000/svg" xmlns:xlink="http://www.w3.org/1999/xlink" width="238" height="48" viewBox="0 0 238 48">
    <defs>
        <path id="prefix__a" d="M6.75 0h34.5C44.978 0 48 3.022 48 6.75v34.5c0 3.728-3.022 6.75-6.75 6.75H6.75C3.022 48 0 44.978 0 41.25V6.75C0 3.022 3.022 0 6.75 0z"/>
        <path id="prefix__c" d="M16.21 1.869V10.7l.007.09c.01.06.028.12.057.18.042.087.12.16.234.218.114.058.285.086.513.086h1.792l.125-.003c.154-.01.263-.037.325-.083.078-.058.118-.148.118-.269 0-.091-.012-.198-.037-.32l-.45-2.369 3.567-1.094c.01.059.06.334.153.834.102.556.219 1.202.35 1.937.09.474.136.912.136 1.313 0 .206-.012.404-.036.592-.048.37-.137.755-.266 1.153s-.298.728-.509.99c-.42.552-.975.962-1.666 1.23-.51.164-1.113.246-1.81.246l-1.793-.001.001.02-.302-.01c-.04-.001-.08-.004-.12-.007l-.028-.002c-.444-.038-.86-.132-1.252-.283-.342-.127-.66-.291-.955-.492-.786.529-1.717.793-2.792.793h-.711v-.009h-.423l-.234-.01c-.775-.057-1.522-.376-2.243-.956-.216.2-.456.374-.72.52-.69.382-1.441.574-2.252.574-.678 0-1.385-.069-2.12-.205-.736-.137-1.368-.277-1.896-.42-.529-.142-.853-.235-.973-.278l1.099-3.983.123.038c.221.067.52.148.894.245.45.115.937.22 1.46.314.522.094.993.141 1.413.141.156 0 .282-.021.378-.064.097-.042.16-.09.19-.145.012-.025.018-.052.018-.082 0-.055-.014-.113-.04-.174-.028-.06-.05-.106-.068-.136l-.01-.01C4.306 9.09 3.494 7.875 3.022 7.16c-.47-.714-.704-1.071-.697-1.071l3.088-2.042c.037.063.267.414.694 1.062.462.702 1.264 1.907 2.404 3.614.043.061.082.125.118.192.03.054.127.202.292.442.165.24.363.509.595.806.23.298.465.56.702.784.237.225.443.338.617.338l.027-.001v-.009h.711l.155-.003c.247-.014.434-.06.561-.138.154-.094.23-.287.23-.579V1.87h3.692zm158.728 3.983l2.107-2.124-2.107-2.133-2.098 2.133 2.098 2.124zm-10.888-1.85l1.981-1.997L164.05 0l-1.972 2.005 1.972 1.997zm4.224 0l1.981-1.997L168.274 0 166.3 2.005l1.973 1.997zm-2.045 7.182c-.042-.006-.126-.03-.252-.073-.126-.042-.262-.109-.41-.2-.147-.091-.276-.214-.387-.37-.11-.154-.166-.347-.166-.578 0-.073.015-.184.045-.333.03-.149.087-.3.17-.451.085-.152.208-.283.37-.392.162-.11.372-.164.63-.164.259 0 .467.055.626.164.16.11.282.24.37.392.087.152.145.302.175.451.03.149.045.26.045.333 0 .225-.055.415-.166.57-.111.155-.242.278-.392.369-.15.09-.287.16-.41.205-.123.045-.206.071-.248.077zm-13.95-7.192l1.81-1.823-1.81-1.832-1.8 1.832 1.8 1.823zm-2.116 3l1.981-1.997-1.981-2.005-1.972 2.005 1.972 1.996zm4.224 0l1.981-1.997-1.981-2.005-1.973 2.005 1.973 1.996zm-18.048 3.919c-.126 0-.252-.024-.378-.073-.126-.049-.243-.13-.351-.246-.175-.2-.262-.423-.262-.666 0-.267.12-.528.36-.783.09-.098.245-.201.464-.31.22-.11.572-.268 1.059-.474.024.103.05.21.08.319.049.182.092.367.131.556.04.188.059.367.059.537 0 .201-.04.386-.122.556-.08.17-.223.313-.428.429-.066.036-.153.071-.26.105-.109.033-.226.05-.352.05zm-19.056 9.416c.966 0 1.753-.049 2.36-.146.696-.11 1.232-.248 1.607-.415.375-.167.67-.326.887-.478.366-.286.728-.638 1.085-1.058.357-.419.655-.934.892-1.545.237-.61.358-1.338.364-2.183v-3.409c0-1.47-.435-2.704-1.305-3.7-.925-.985-2.033-1.477-3.324-1.477-.426 0-.888.08-1.386.241-.499.161-.97.438-1.414.83-.445.392-.81.92-1.095 1.586-.285.665-.427 1.505-.427 2.52 0 .912.195 1.688.585 2.33.39.64.911 1.132 1.563 1.476.65.343 1.376.527 2.174.551h.775c-.024.176-.141.322-.351.438-.21.115-.559.194-1.045.237-.486.042-1.099.064-1.837.064h-1.09v4.138h.982zm3.656-9.042h-1.396c-.204 0-.355-.041-.455-.123-.099-.083-.165-.19-.198-.324s-.05-.277-.05-.428c0-.28.1-.517.298-.711.198-.195.444-.292.738-.292.3 0 .553.096.757.287.204.191.306.43.306.716v.875zm-16.652.957c-.114 0-.295-.05-.544-.15-.25-.101-.499-.223-.748-.365-.25-.143-.449-.278-.599-.406.036-.17.102-.387.198-.652.096-.264.22-.506.374-.724.153-.22.338-.329.554-.329.216 0 .41.07.58.21.172.14.311.309.42.506.108.198.177.394.207.588.012.085.018.17.018.255 0 .243-.04.467-.117.67-.078.204-.166.33-.262.378-.018.013-.045.019-.08.019zM73.478 20.5l1.982-2.005-1.982-1.997-1.972 1.997 1.972 2.005zm4.224 0l1.981-2.005-1.98-1.997-1.973 1.997 1.972 2.005zm19.48-5.059c-.695-.006-1.224-.02-1.59-.045-.441-.03-.776-.102-1.004-.215-.228-.112-.456-.29-.684-.533-.415.316-.97.556-1.666.72-.223.043-.46.067-.712.073h-.036l-.263-.006c-1.112-.045-1.883-.307-2.313-.787-.366.25-.732.444-1.098.583-.367.14-.778.21-1.234.21-.636 0-1.157-.077-1.563-.232-.405-.155-.758-.342-1.058-.56l-.153.154c-.168.194-.342.337-.522.428-.18.092-.49.15-.928.174-.438.024-1.159.036-2.161.036l-.001-.01-.873.001-.272-.008c-.36-.021-.71-.086-1.052-.193-.426-.133-.82-.316-1.18-.546-.348.28-.736.474-1.166.583-.429.11-.983.164-1.661.164l-2.567-.001v.01h-.414l-.206-.006c-.203-.011-.402-.04-.596-.085-.102.413-.26.902-.472 1.467-.214.566-.512 1.091-.897 1.577-.57.663-1.284 1.155-2.143 1.477-.81.31-1.726.465-2.747.465h-.891v-4.157h.891l.23-.004c.898-.031 1.53-.252 1.896-.661.234-.292.388-.65.463-1.076.076-.425.113-.814.113-1.166V8.377h3.692v2.178l.008.11c.02.145.083.275.186.392.13.146.317.218.563.218h3.152l.139-.002c.216-.01.362-.04.437-.093.09-.064.135-.178.135-.342V8.377h3.693v2.46l.006.107c.012.099.043.174.093.227.066.07.231.104.495.104h1.855l.16-.003c.306-.016.526-.079.66-.188.156-.128.234-.316.234-.565V8.377h3.692v2.16l.007.13c.016.168.065.31.147.426.102.146.249.222.44.228.428 0 .65-.223.667-.668V8.377h3.684v2.16l.007.13c.02.168.08.31.182.426.126.146.285.219.477.219s.333-.073.423-.219c.09-.146.135-.331.135-.556v-2.16h3.693v2.16l.006.12c.023.19.1.335.232.436.16.122.431.182.816.182h.774l.19-.003c.487-.02.808-.123.963-.306.174-.207.339-.605.495-1.195.048-.145.1-.31.153-.492.042-.152.123-.358.243-.62.12-.26.287-.543.5-.847.213-.304.477-.593.793-.866.315-.274.693-.5 1.134-.68.442-.179.95-.268 1.527-.268.63 0 1.183.112 1.657.337.474.225.88.517 1.216.875.336.359.61.75.824 1.171.213.423.374.837.482 1.245.108.407.168.768.18 1.084.006.146.009.289.009.429 0 .735-.083 1.36-.248 1.877-.165.517-.378.945-.64 1.286-.26.34-.541.609-.841.806-.3.198-.593.34-.878.424-.286.085-.533.13-.743.137-.078.006-.163.01-.253.01-.588 0-1.142-.066-1.661-.197-.52-.13-.979-.28-1.378-.451-.4-.17-.716-.322-.95-.456-.252.25-.622.456-1.108.62-.486.164-.952.246-1.396.246h-.63zm-40.67 5.004l1.98-2.005-1.98-1.996-1.973 1.996 1.973 2.005zm4.223 0l1.982-2.005-1.982-1.996-1.972 1.996 1.972 2.005zm-2.936-9.17l.125-.003c.155-.01.263-.037.326-.083.078-.058.117-.148.117-.269 0-.091-.012-.198-.036-.32l-.45-2.369 3.566-1.094c.01.059.06.334.153.834.102.556.219 1.202.351 1.937.09.474.135.912.135 1.313 0 .206-.012.404-.036.592-.048.37-.136.755-.266 1.153-.129.398-.298.728-.508.99-.42.552-.976.962-1.666 1.23-.51.164-1.114.246-1.81.246l-3.261-.001v.02h-.801l-.26-.006c-.421-.017-.799-.076-1.132-.177-.399-.122-.74-.274-1.022-.456-.282-.182-.513-.364-.693-.547-.186-.182-.368-.416-.545-.702-.177-.285-.327-.63-.45-1.034-.124-.404-.185-.874-.185-1.409V8.65l.001-1.728.003-1.74c.002-.698.004-1.304.004-1.817l.001-1.496h3.683v8.823l.006.101c.02.16.086.277.201.35.139.088.262.132.37.132h4.08zM43.75 15.432c.697 0 1.3-.082 1.81-.246.697-.219 1.258-.59 1.685-1.112.48-.59.732-1.343.756-2.26.024-.195.036-.396.036-.602 0-.401-.045-.836-.135-1.304-.126-.735-.24-1.382-.342-1.941l-.063-.328-3.576 1.057.36 1.905c.03.128.046.234.046.319 0 .079-.012.143-.036.191-.054.11-.235.164-.54.164h-1.766l-7.268.01c-.192 0-.322-.037-.391-.11-.07-.073-.104-.164-.104-.273v-.028c0-.121.021-.258.063-.41.108-.48.207-.902.297-1.267.072-.316.114-.495.126-.538V8.65L31.17 7.593v.018c-.006.012-.009.024-.009.037-.21.632-.387 1.422-.531 2.37-.03.291-.045.574-.045.847 0 1.106.225 2.082.675 2.926.54.845 1.327 1.35 2.36 1.513.36.061.795.098 1.306.11.51.012 1.176.018 1.999.018h6.826zm-4.386 4.813l2.108-2.124-2.108-2.133-2.098 2.133 2.098 2.124zm-19.857-4.13l2.107 2.134-2.107 2.123-2.099-2.123 2.099-2.133zm124.883-4.84l.16-.003c.306-.016.526-.079.66-.188.156-.128.234-.316.234-.565V8.377h3.692v2.16l.006.13c.017.168.066.31.147.426.103.146.25.222.442.228.462 0 .684-.261.666-.784v-2.16h3.684v2.16l.007.13c.02.168.08.31.182.426.126.146.285.219.477.219s.333-.073.423-.219c.09-.146.135-.331.135-.556v-2.16h3.693v2.16l.006.12c.022.19.1.335.232.436.16.122.431.182.815.182h1.585l-.059-.29c-.05-.294-.076-.598-.076-.913 0-1.349.442-2.516 1.324-3.5.9-.984 2.036-1.477 3.404-1.477 1.363 0 2.495.493 3.396 1.477.882.984 1.323 2.151 1.323 3.5 0 .42-.045.82-.135 1.203h2.9l.125-.003c.155-.01.263-.037.326-.083.078-.058.117-.148.117-.269 0-.091-.012-.198-.036-.32l-.45-2.369 3.566-1.094c.01.059.06.334.153.834.102.556.219 1.202.35 1.937.091.474.136.912.136 1.313 0 .206-.012.404-.036.592-.048.37-.137.755-.266 1.153s-.298.728-.509.99c-.42.552-.975.962-1.666 1.23-.51.164-1.113.246-1.81.246l-1.801-.001v.01h-1.945l-.397-.004c-.52-.011-1.007-.045-1.458-.1-.565-.07-1.192-.188-1.883-.352-.6.164-1.205.281-1.814.351-.61.07-1.254.105-1.932.105h-1.972c-.717-.005-1.262-.02-1.635-.045-.441-.03-.776-.102-1.004-.215-.228-.112-.456-.29-.684-.533-.415.316-.97.556-1.667.72-.222.043-.459.067-.711.073h-.036l-.263-.006c-1.112-.045-1.883-.307-2.313-.787-.366.25-.732.444-1.098.583-.367.14-.778.21-1.234.21-.637 0-1.157-.077-1.563-.232-.405-.155-.758-.342-1.058-.56l-.153.154c-.168.194-.342.337-.522.428-.18.092-.49.15-.928.174-.37.02-.94.032-1.71.035l-.001.001h-.531l-.329-.005c-.535-.016-1.006-.074-1.414-.173-.49-.118-.902-.264-1.238-.437-.336-.173-.608-.348-.815-.524-.207-.177-.362-.328-.464-.456-.474.267-.943.445-1.405.533-.462.088-.952.132-1.468.132-.582 0-1.157-.114-1.725-.341-.567-.228-1.065-.607-1.495-1.135-.429-.529-.74-1.243-.932-2.142-.072-.353-.108-.714-.108-1.085 0-.456.07-.918.207-1.386.139-.468.373-.919.703-1.353.33-.435.777-.83 1.342-1.185.564-.356 1.267-.655 2.107-.898l-.117-.52 3.602-.83.09.39c.265 1.146.478 2.083.64 2.81l.117.547c.114.541.222 1.029.324 1.463.102.435.225.94.37 1.518.041.2.113.368.215.501.103.134.287.236.554.306.268.07.68.104 1.239.104h.99z"/>
    </defs>
    <g fill="none" fill-rule="evenodd">
        <g transform="translate(190)">
            <mask id="prefix__b" fill="#fff">
                <use xlink:href="#prefix__a"/>
            </mask>
            <use fill="#241957" xlink:href="#prefix__a"/>
            <path fill="#7868F6" d="M36 0L36 24 24.004 24 24.004 36 0 36 0 12 11.999 12 12 0z" mask="url(#prefix__b)"/>
            <path fill="#F8D748" d="M24 36c6.627 0 12-5.373 12-12s-5.373-12-12-12H12v12c0 6.627 5.373 12 12 12z" mask="url(#prefix__b)"/>
            <circle cx="24" cy="24" r="7.5" fill="#EF8B32" mask="url(#prefix__b)"/>
            <circle cx="24" cy="24" r="3.75" fill="#FFF" mask="url(#prefix__b)"/>
        </g>
        <g transform="translate(0 4)">
            <path fill="#757575" d="M2.865 37.258c.878 0 1.557-.208 2.038-.625.481-.417.722-.988.722-1.714 0-.477-.13-.887-.389-1.23-.259-.342-.612-.575-1.06-.7.38-.159.68-.384.899-.677.218-.292.328-.626.328-1.003 0-.716-.227-1.255-.68-1.618-.453-.363-1.127-.545-2.022-.545H0v8.112h2.865zm-.132-4.652H1.089v-2.578h1.612c.54 0 .942.1 1.208.303.266.202.4.527.4.973 0 .4-.143.718-.429.951-.285.234-.668.35-1.147.35zm.153 3.775H1.09v-2.92h1.818c1.082 0 1.623.49 1.623 1.468 0 .453-.147.808-.441 1.066-.294.258-.695.386-1.203.386zm7.565.986c.677 0 1.26-.247 1.75-.742.039.304.088.515.148.633h1.1v-.088c-.142-.329-.212-.77-.212-1.323v-2.775c-.018-.608-.227-1.086-.627-1.434-.4-.347-.954-.521-1.662-.521-.448 0-.858.082-1.232.246-.373.165-.669.387-.885.667-.217.28-.325.57-.325.871h1.057c0-.263.126-.487.378-.674.252-.187.566-.28.943-.28.427 0 .75.107.97.321.22.215.33.502.33.861v.472H11.16c-.88 0-1.564.174-2.05.522-.487.347-.73.835-.73 1.465 0 .515.194.94.581 1.276.388.335.885.503 1.491.503zm.153-.892c-.345 0-.627-.092-.846-.275-.218-.183-.327-.436-.327-.757 0-.74.643-1.11 1.93-1.11h.824v1.24c-.134.265-.348.482-.642.65-.295.168-.607.252-.939.252zm6.899.783V28.7h-1.047v8.558h1.047zm5.059.109c.677 0 1.26-.247 1.75-.742.038.304.088.515.148.633h1.1v-.088c-.142-.329-.212-.77-.212-1.323v-2.775c-.018-.608-.227-1.086-.627-1.434-.4-.347-.954-.521-1.662-.521-.448 0-.858.082-1.232.246-.373.165-.669.387-.885.667-.217.28-.325.57-.325.871h1.057c0-.263.126-.487.378-.674.252-.187.566-.28.943-.28.427 0 .75.107.97.321.22.215.33.502.33.861v.472H23.27c-.88 0-1.564.174-2.05.522-.487.347-.73.835-.73 1.465 0 .515.193.94.581 1.276.388.335.885.503 1.49.503zm.153-.892c-.345 0-.627-.092-.846-.275-.218-.183-.327-.436-.327-.757 0-.74.643-1.11 1.93-1.11h.824v1.24c-.134.265-.348.482-.642.65-.295.168-.608.252-.939.252zm7.92.892c.746 0 1.331-.253 1.754-.757l.048.648h.967V28.7h-1.052v3.143c-.42-.484-.988-.726-1.707-.726-.723 0-1.308.282-1.755.845-.448.564-.672 1.307-.672 2.23v.078c0 .924.225 1.67.674 2.241.45.57 1.03.856 1.742.856zm.258-.872c-.507 0-.905-.193-1.192-.58-.287-.388-.43-.922-.43-1.603 0-.768.143-1.346.43-1.735.287-.389.688-.584 1.203-.584.652 0 1.134.284 1.448.851v2.77c-.307.588-.793.881-1.459.881zm12.037.763v-3.159l-.111-3.392 2.712 6.55h.835l2.712-6.57-.1 3.412v3.159h1.088v-8.112h-1.411l-2.707 6.618-2.7-6.618H41.84v8.112h1.089zm12.275.109c.676 0 1.26-.247 1.75-.742.038.304.088.515.148.633h1.1v-.088c-.142-.329-.212-.77-.212-1.323v-2.775c-.018-.608-.227-1.086-.627-1.434-.4-.347-.954-.521-1.662-.521-.448 0-.858.082-1.232.246-.374.165-.669.387-.886.667-.216.28-.325.57-.325.871h1.058c0-.263.126-.487.378-.674.252-.187.566-.28.943-.28.427 0 .75.107.97.321.22.215.33.502.33.861v.472h-1.025c-.88 0-1.565.174-2.051.522-.486.347-.73.835-.73 1.465 0 .515.194.94.582 1.276.388.335.885.503 1.49.503zm.153-.892c-.345 0-.627-.092-.846-.275-.218-.183-.328-.436-.328-.757 0-.74.644-1.11 1.93-1.11h.825v1.24c-.134.265-.348.482-.643.65-.294.168-.607.252-.938.252zm6.809 3.101v-2.904c.43.463 1.017.695 1.76.695.73 0 1.308-.28 1.737-.84.428-.56.642-1.299.642-2.215v-.099c0-.971-.215-1.73-.645-2.277-.43-.546-1.013-.819-1.75-.819-.761 0-1.355.261-1.781.783l-.053-.669h-.962v8.345h1.052zm1.443-3.05c-.649 0-1.13-.274-1.443-.824v-2.879c.317-.553.794-.83 1.432-.83.515 0 .92.198 1.214.592.294.394.441.93.441 1.608 0 .774-.148 1.357-.444 1.747-.296.391-.696.587-1.2.587zm7.77.84c.702 0 1.272-.162 1.71-.487.44-.325.659-.755.659-1.291 0-.325-.078-.6-.235-.825-.157-.225-.398-.417-.724-.576-.326-.159-.752-.296-1.277-.412-.525-.116-.887-.237-1.086-.363-.2-.126-.3-.314-.3-.563 0-.263.108-.476.323-.64.215-.165.513-.247.894-.247.373 0 .682.103.925.309.243.206.365.449.365.729h1.057c0-.55-.217-1.001-.65-1.354-.434-.353-1-.529-1.697-.529-.663 0-1.206.171-1.631.513-.425.343-.637.761-.637 1.256 0 .297.075.553.225.767.15.215.38.4.692.558.312.157.734.291 1.266.402.532.11.905.243 1.118.396.213.154.32.371.32.651 0 .263-.12.473-.36.63-.239.158-.558.237-.956.237-.434 0-.782-.102-1.044-.304-.263-.202-.403-.476-.42-.822h-1.052c0 .356.106.688.32.996.213.308.509.546.887.716.38.17.815.254 1.309.254zm12.27 0c.677 0 1.26-.246 1.75-.74.039.303.088.514.148.632h1.1v-.088c-.141-.329-.212-.77-.212-1.323v-2.775c-.017-.608-.226-1.086-.626-1.434-.4-.347-.954-.521-1.663-.521-.447 0-.858.082-1.232.246-.373.165-.668.387-.885.667-.217.28-.325.57-.325.871h1.057c0-.263.126-.487.378-.674.252-.187.567-.28.944-.28.426 0 .75.107.97.321.22.215.33.502.33.861v.472H84.36c-.881 0-1.565.174-2.051.522-.487.347-.73.835-.73 1.465 0 .515.194.94.582 1.276.387.335.884.503 1.49.503zm.154-.891c-.346 0-.628-.092-.846-.275-.219-.183-.328-.436-.328-.757 0-.74.643-1.11 1.93-1.11h.824v1.24c-.134.265-.348.482-.642.65-.294.168-.607.252-.938.252zm6.808.783v-4.295c.145-.29.346-.524.603-.702.257-.178.557-.268.899-.268.419 0 .728.104.927.312.2.207.3.529.304.964v3.989h1.052v-3.983c-.014-1.439-.67-2.158-1.966-2.158-.758 0-1.371.29-1.84.871l-.037-.757h-.994v6.027h1.052zm9.008.109c.747 0 1.332-.253 1.755-.757l.048.648h.967V28.7h-1.052v3.143c-.42-.484-.988-.726-1.707-.726-.723 0-1.308.282-1.755.845-.448.564-.672 1.307-.672 2.23v.078c0 .924.225 1.67.674 2.241.45.57 1.03.856 1.742.856zm.26-.872c-.508 0-.906-.193-1.193-.58-.287-.388-.43-.922-.43-1.603 0-.768.143-1.346.43-1.735.287-.389.688-.584 1.203-.584.652 0 1.135.284 1.448.851v2.77c-.306.588-.793.881-1.459.881zm12.041.763v-6.25l4.16 6.25h1.1v-8.112h-1.089v6.281l-4.17-6.281h-1.095v8.112h1.094zm10.404.109c.676 0 1.26-.247 1.75-.742.038.304.088.515.148.633h1.1v-.088c-.142-.329-.212-.77-.212-1.323v-2.775c-.018-.608-.227-1.086-.627-1.434-.4-.347-.954-.521-1.662-.521-.448 0-.858.082-1.232.246-.374.165-.669.387-.885.667-.217.28-.326.57-.326.871h1.058c0-.263.126-.487.378-.674.252-.187.566-.28.943-.28.427 0 .75.107.97.321.22.215.33.502.33.861v.472h-1.025c-.88 0-1.565.174-2.05.522-.487.347-.73.835-.73 1.465 0 .515.193.94.581 1.276.388.335.885.503 1.49.503zm.153-.892c-.345 0-.627-.092-.846-.275-.218-.183-.327-.436-.327-.757 0-.74.643-1.11 1.929-1.11h.825v1.24c-.134.265-.348.482-.643.65-.294.168-.607.252-.938.252zm8.178.783l2.204-6.027h-1.073l-1.522 4.626-1.565-4.626h-1.073l2.23 6.027h.799zm5.323-7.044c.205 0 .36-.055.465-.165.106-.111.16-.251.16-.42 0-.167-.054-.307-.16-.423-.105-.116-.26-.174-.465-.174-.204 0-.36.058-.465.174-.106.116-.159.256-.159.422 0 .17.053.31.16.42.105.111.26.166.464.166zm.513 7.044V31.23h-1.047v6.027h1.047zm5.498 2.375c.793 0 1.425-.224 1.898-.674.472-.45.708-1.065.708-1.846V31.23h-.962l-.048.67c-.42-.523-1.004-.784-1.755-.784-.733 0-1.32.277-1.763.832-.442.555-.663 1.303-.663 2.244 0 .982.223 1.756.669 2.323.445.567 1.028.85 1.747.85.726 0 1.298-.236 1.718-.71v.519c0 .512-.143.908-.429 1.19-.285.282-.683.423-1.194.423-.652 0-1.204-.273-1.655-.82l-.544.623c.225.321.55.576.972.762.423.187.857.28 1.3.28zm.09-3.138c-.511 0-.909-.194-1.192-.583-.284-.389-.426-.922-.426-1.6 0-.768.144-1.346.43-1.735.288-.389.687-.584 1.198-.584.645 0 1.128.287 1.449.861v2.755c-.31.59-.797.886-1.46.886zm7.474.872c.677 0 1.26-.247 1.75-.742.039.304.088.515.148.633h1.1v-.088c-.141-.329-.212-.77-.212-1.323v-2.775c-.017-.608-.226-1.086-.626-1.434-.4-.347-.954-.521-1.663-.521-.447 0-.858.082-1.231.246-.374.165-.669.387-.886.667-.217.28-.325.57-.325.871h1.057c0-.263.126-.487.378-.674.252-.187.567-.28.944-.28.426 0 .75.107.97.321.22.215.33.502.33.861v.472h-1.025c-.881 0-1.565.174-2.051.522-.487.347-.73.835-.73 1.465 0 .515.194.94.582 1.276.387.335.884.503 1.49.503zm.154-.892c-.346 0-.628-.092-.846-.275-.219-.183-.328-.436-.328-.757 0-.74.643-1.11 1.93-1.11h.824v1.24c-.134.265-.348.482-.642.65-.294.168-.607.252-.938.252zm7.554.892c.26 0 .529-.037.803-.11v-.834c-.211.045-.377.067-.497.067-.246 0-.42-.06-.523-.181-.102-.121-.153-.303-.153-.545v-3.74h1.147v-.793h-1.147v-1.463h-1.052v1.463h-1.116v.794h1.116v3.74c0 .51.12.906.36 1.184.239.279.593.418 1.062.418zm4.113-7.153c.204 0 .36-.055.465-.165.106-.111.158-.251.158-.42 0-.167-.052-.307-.158-.423-.106-.116-.261-.174-.465-.174-.205 0-.36.058-.466.174-.105.116-.158.256-.158.422 0 .17.053.31.158.42.106.111.261.166.466.166zm.512 7.044V31.23h-1.046v6.027h1.046zm5.683.109c.553 0 1.043-.13 1.47-.39.426-.259.754-.622.983-1.088.23-.467.344-.993.344-1.577v-.073c0-.944-.259-1.7-.775-2.269-.516-.569-1.194-.853-2.032-.853-.54 0-1.02.128-1.444.384-.422.256-.752.62-.988 1.092-.236.472-.354 1.003-.354 1.594v.073c0 .937.258 1.69.774 2.256.516.567 1.19.85 2.022.85zm0-.84c-.528 0-.95-.203-1.266-.607-.315-.405-.473-.94-.473-1.608 0-.754.159-1.334.476-1.74.317-.406.735-.61 1.253-.61.532 0 .957.206 1.276.618.32.411.479.947.479 1.607 0 .74-.157 1.315-.47 1.725-.315.41-.74.615-1.275.615zm6.645.73v-4.294c.145-.29.345-.524.603-.702.257-.178.556-.268.898-.268.42 0 .729.104.928.312.2.207.3.529.304.964v3.989H178v-3.983c-.014-1.439-.67-2.158-1.966-2.158-.758 0-1.371.29-1.84.871l-.037-.757h-.994v6.027h1.052z"/>
            <use fill="#212121" xlink:href="#prefix__c"/>
        </g>
    </g>
</svg>
