<svg xmlns="http://www.w3.org/2000/svg" width="600" height="800"><path fill="#86B918" d="M131.969 755.898c11.244 0 19.199-4.599 25.85-11.573l7.591 6.827c-8.227 9.192-18.222 15.376-33.76 15.376-22.534 0-40.906-17.294-40.906-42.824 0-23.777 16.649-42.815 39.333-42.815 24.237 0 38.203 19.347 38.203 43.453 0 1.113 0 2.381-.15 3.803h-65.031c1.739 17.776 14.437 27.753 28.87 27.753zm23.958-36.787c-1.277-14.907-9.844-27.916-26.194-27.916-14.242 0-25.043 11.909-26.639 27.916h52.833z"/><path fill="#41281B" d="M231.23 725.461h-26.957v39.177H191.75V653.616h41.562c25.043 0 41.542 13.331 41.542 35.373 0 24.107-19.984 36.472-43.624 36.472zm1.103-60.265h-28.062v48.839h27.447c18.386 0 30.441-9.823 30.441-24.577.004-16.014-11.879-24.262-29.826-24.262zM388.377 717.193c0 32.363-18.535 49.174-46.3 49.174-27.424 0-46.134-16.811-46.134-48.208v-64.543h12.518v63.752c0 23.939 12.693 37.425 33.954 37.425 20.453 0 33.462-12.378 33.462-36.634v-64.543h12.5v63.577zM500.202 681.379c0 14.584-8.885 22.034-17.602 25.85 13.163 3.95 23.771 11.561 23.771 26.958 0 19.172-16.014 30.451-40.269 30.451H415.99V653.616h48.048c21.882 0 36.164 10.776 36.164 27.763zm-12.692 1.743c0-11.112-8.739-18.24-24.573-18.24h-34.59v38.229h33.63c15.056-.007 25.533-6.834 25.533-19.989zm6.188 50.266c0-12.218-10.162-19.192-29.513-19.192h-35.839v39.163h38.076c16.816-.001 27.276-7.438 27.276-19.971z"/><path fill="#86B918" d="M298.549 467.913L129.228 298.579 298.549 129.27l56.446 56.435-112.891 112.874 56.441 56.443 169.323-169.308L320.366 38.217c-12.043-12.055-31.579-12.055-43.634 0L38.169 276.781c-12.044 12.043-12.044 31.58 0 43.633l238.563 238.557c12.055 12.05 31.591 12.05 43.634 0l238.565-238.557c12.044-12.053 12.044-31.59 0-43.633L524.3 242.159 298.549 467.913z"/></svg>