<svg xmlns="http://www.w3.org/2000/svg" width="104.725" height="33"><defs><style>.cls-1{fill:#28c5cc}</style></defs><g id="Group_1" data-name="Group 1" transform="translate(-140.816 -81.357)"><path id="Path_1" d="M172.768 90.6a1.705 1.705 0 00-3.395.327c-.007 2.041-.041 4.082-.035 6.123.006 2.186-.04 4.373.031 6.56.04 1.223-.5 1.681-1.72 1.542a2.73 2.73 0 01-.36-.082.92.92 0 01-.716-.763 4.942 4.942 0 01-.092-1.045q0-6.1-.016-12.194a4.126 4.126 0 00-.014-.5 1.7 1.7 0 00-2.41-1.332 1.757 1.757 0 00-.984 1.776c0 2.867-.032 5.734-.035 8.6 0 1.32-.011 2.64.025 3.96.029 1.053-.083 1.267-.926 1.58h-4.161c-.007-.088-.017-.113-.009-.125.143-.2.283-.405.431-.6a8.963 8.963 0 001.742-4.755 9.211 9.211 0 00-2.372-7.248 9.4 9.4 0 00-9.7-2.949 9.658 9.658 0 001 18.91c.205.034.465-.035.581.235l-3.84 3.854-.04.047a1.724 1.724 0 00.062 2.216 1.678 1.678 0 002.246.226 4.448 4.448 0 00.5-.455c1.862-1.845 3.728-3.684 5.575-5.543a1.193 1.193 0 01.978-.394q1.235.056 2.473.054 6.251-.017 12.5-.048c.29 0 .578.016.867 0a1.736 1.736 0 001.824-1.893c.011-1.32.02-2.641.019-3.962q0-5.85-.019-11.7a3.986 3.986 0 00-.01-.422zm-28.638 8.217a6.361 6.361 0 0112.722.021 6.361 6.361 0 11-12.722-.021z" class="cls-1" data-name="Path 1" transform="translate(0 -1.351)"/><path id="Path_2" fill="#cacaca" d="M215.6 100.6a1.248 1.248 0 01-.832.149h-26.183c-.557.007-.573 0-.653.573a7.9 7.9 0 01-.54 1.833 1.888 1.888 0 00-.211.653c.195.009.357.023.521.023h27.236a4.172 4.172 0 001.512-.262 4.084 4.084 0 002.621-4.489 4.144 4.144 0 00-4.174-3.472c-9.12.035-18.24.015-27.36.017a.945.945 0 00-.582.071c-.055.179.058.293.122.414a7.485 7.485 0 01.777 2.078c.068.35.2.512.567.462a3.158 3.158 0 01.433 0h25.626a4.783 4.783 0 01.68.018 1.018 1.018 0 01.863.78 1.072 1.072 0 01-.423 1.152z" data-name="Path 2" transform="translate(-8.072 -2.495)"/><path id="Path_3" d="M252.738 97.089a9.643 9.643 0 00-9.745-7.753 9.26 9.26 0 00-5.864 2.169 9.466 9.466 0 00-3.542 7.886 9.091 9.091 0 001.932 5.45c.1.134.292.243.227.513-.754 0-1.514.008-2.274 0a19.377 19.377 0 01-2.285-.05l-.044-.012a.259.259 0 00-.205-.121 2.149 2.149 0 01-.4-1.633q-.02-6.122-.035-12.243a3.912 3.912 0 00-.062-.8 1.672 1.672 0 00-2.091-1.227 1.694 1.694 0 00-1.25 1.832q-.012 6.216-.019 12.431c0 1.555-.361 1.879-1.987 1.831a.928.928 0 01-.985-.841 3.449 3.449 0 01-.086-.8q0-2.319-.013-4.638a4.65 4.65 0 00-.072-1.106 9.5 9.5 0 00-5.273-7.78 10.244 10.244 0 00-4.948-1.129q-14.324.006-28.647 0a1.278 1.278 0 00-.549.049 1.71 1.71 0 00-.236.05 1.657 1.657 0 00-1.136 1.926 1.637 1.637 0 001.676 1.321c.306 0 .612-.016.918-.024.226.008.452.025.678.025h10.457c5.609 0 11.219.013 16.829-.008a7.071 7.071 0 014.4 1.374 6.124 6.124 0 011 9.094 6.665 6.665 0 01-5.2 2.289q-14.137-.019-28.276 0c-.164 0-.329.008-.493.012a2.017 2.017 0 00-.3-.048 1.693 1.693 0 10-.068 3.384c.287.007.574-.019.861-.03.185.009.37.026.554.026h27.724c.35 0 .7 0 1.05-.038a9.715 9.715 0 005.5-2.278c.239.2.094.464.108.7a1.875 1.875 0 001.025 1.768 2.305 2.305 0 001.024.182c2.078 0 4.157-.007 6.235 0 3.357.007 6.713-.031 10.07-.054 1.5-.011 3-.073 4.5-.082a5.34 5.34 0 00.611-.072 5.035 5.035 0 001.517-.238 9.649 9.649 0 007.189-11.307zm-9.416 8.269a6.355 6.355 0 116.292-6.447 6.4 6.4 0 01-6.291 6.447z" class="cls-1" data-name="Path 3" transform="translate(-7.389 -1.348)"/><path id="Path_4" d="M175.572 115.853c-1.1-.279-2.038.243-2.74 1.564-.769-1.357-1.667-1.851-2.783-1.555a2.256 2.256 0 101.4 4.276 2.489 2.489 0 001.373-1.5c.688 1.363 1.569 1.871 2.749 1.611a2.252 2.252 0 000-4.392z" class="cls-1" data-name="Path 4" transform="translate(-4.815 -6.024)"/><path id="Path_5" d="M236.6 115.925a2.344 2.344 0 00-2.737 1.579c-.781-1.363-1.658-1.842-2.8-1.573a2.254 2.254 0 00-1.692 2.048 2.23 2.23 0 001.534 2.286 2.183 2.183 0 001.456-.01 2.355 2.355 0 001.451-1.517c.832 1.412 1.748 1.888 2.88 1.554a2.217 2.217 0 001.629-2.278 2.246 2.246 0 00-1.721-2.089z" class="cls-1" data-name="Path 5" transform="translate(-15.495 -6.038)"/><path id="Path_6" d="M255.237 85.863a2.253 2.253 0 10-2.259-2.232 2.271 2.271 0 002.259 2.232z" class="cls-1" data-name="Path 6" transform="translate(-19.628)"/><path id="Path_7" d="M162.695 115.787a2.264 2.264 0 102.276 2.266 2.25 2.25 0 00-2.276-2.266z" class="cls-1" data-name="Path 7" transform="translate(-3.44 -6.025)"/></g></svg>