<svg width="87" height="96" fill="none" xmlns="http://www.w3.org/2000/svg"><g clip-path="url(#clip0_84368_404323)" fill="#23211F"><path d="M63.417 77.653c-.823 0-1.493-.67-1.493-1.494 0-.823.67-1.493 1.493-1.493.823 0 1.493.67 1.493 1.493 0 .823-.67 1.494-1.493 1.494zM18.95 91.326c-3.953 0-6.004-2.884-6.842-4.06-.086-.12-.158-.224-.221-.304l1.832-1.415c.078.1.17.228.274.375.92 1.294 2.637 3.703 6.33 2.941.12-.025.238-.057.354-.097-.851-.41-1.666-1.053-2.413-1.994-1.718-2.166-1.069-4.398.263-5.555 1.836-1.596 4.203-1.007 5.499.355 1.2 1.263 1.598 3.242 1.064 5.217 1.9-.524 3.938-1.836 5.861-3.248 1.193-.874 1.738-1.274 2.48-.922 1.006.477.861 1.59.623 3.435-.076.594-.204 1.571-.207 2.19 1.47-.469 5.278-2.672 7.899-7.076l1.99 1.185a20.974 20.974 0 01-6.036 6.455c-1.069.731-3.709 2.36-5.139 1.68-1.322-.629-1.093-2.493-.813-4.663-1.812 1.307-4.901 3.356-7.985 3.524-.783.914-1.81 1.543-2.973 1.783a9.098 9.098 0 01-1.842.196l.002-.002zm2.135-8.762a1.59 1.59 0 00-1.038.4c-.256.223-1.012 1.052.032 2.368.733.925 1.581 1.428 2.501 1.613.086-.183.162-.375.225-.577.39-1.244.211-2.501-.455-3.202-.406-.427-.852-.602-1.265-.602zM34.153 95.69h-.352l.007-2.316c.048 0 4.724.013 6.12-.138l.246 2.303c-1.297.14-4.872.15-6.02.15zM25.657 95.772c-.823 0-1.493-.67-1.493-1.494 0-.822.67-1.493 1.493-1.493.823 0 1.494.67 1.494 1.493 0 .823-.67 1.494-1.494 1.494zM47.216 95.999l-.25-2.303c1.633-.177 6.102-.268 6.29-.274l.048 2.314c-.046 0-4.556.095-6.09.261l.002.002zM40.856 91.375l-.895-2.135c5.404-2.263 6.585-5.088 7.29-6.773.32-.768.598-1.43 1.17-1.852a1.231 1.231 0 011.374-.08c.821.49.715 1.254.402 3.518-.135.978-.451 3.27-.364 4.439.844-.719 2.22-2.19 3.122-3.153 3.09-3.303 4.124-4.32 5.305-3.752 1.354.65.94 2.432.316 5.133-.158.684-.373 1.617-.46 2.238 1.152-.078 3.496-.51 5.647-1.364a6.701 6.701 0 01-1.385-2.822c-.505-2.176.383-4.703 3.06-5.33 2.567-.6 4.431 1.116 4.885 3.038.328 1.39.18 3.345-2.055 5.194 1.567.364 3.49.221 5.504-.432l.717 2.202c-3.303 1.074-6.378.99-8.69-.227-1.823.882-3.73 1.387-4.834 1.633-3.688.815-4.383.25-4.614.064-.944-.767-.6-2.253-.03-4.714.088-.383.2-.867.299-1.337-.644.644-1.387 1.438-1.971 2.063-3.225 3.445-4.368 4.531-5.568 4.21-1.5-.403-1.697-2.262-1.52-4.505-1.227 1.567-3.229 3.29-6.703 4.746l-.002-.002zM57.5 88.951l8.909-7.305c-.162 0-.315.019-.444.05-.882.205-1.696.984-1.332 2.55.214.922.65 1.682 1.3 2.266.502-.318.954-.67 1.327-1.059.996-1.038.939-1.893.81-2.444-.254-1.072-1.033-1.363-1.66-1.363L57.5 88.95zM61.063 0c-6.9 0-13.18 2.69-17.876 7.091C38.49 2.69 32.21 0 25.312 0 13.301 0 3.166 8.154 0 19.301l13.09 41.41c-1.006-15.328 17.847-16.972 20.641-2.812 4.267 21.629 31.141 16.505 27.117-2.709l-3.518.825c.651 2.774-1.256 5.873-3.844 6.2-9.39 1.185-8.035-19.38 7.644-17.815 9.038.903 13.034 8.712 14.809 13.587l10.438-38.684C83.21 8.154 73.077 0 61.063 0zM34.415 27.975a4.493 4.493 0 00-2.213 2.707 4.368 4.368 0 00-.509-1.126 4.49 4.49 0 00-1.7-1.579 4.575 4.575 0 00-.835-.34 4.568 4.568 0 001.128-.511 4.497 4.497 0 001.407-1.41 4.426 4.426 0 00.51-1.131 4.42 4.42 0 00.511 1.131 4.496 4.496 0 001.41 1.408 4.568 4.568 0 001.128.51 4.402 4.402 0 00-.837.34v.001zm21.075 0a4.49 4.49 0 00-1.872 1.872 4.575 4.575 0 00-.342.835 4.362 4.362 0 00-.508-1.126 4.49 4.49 0 00-1.701-1.579 4.575 4.575 0 00-.835-.34 4.568 4.568 0 001.128-.511 4.497 4.497 0 001.577-1.703 4.42 4.42 0 00.341-.838 4.426 4.426 0 00.51 1.131 4.5 4.5 0 001.703 1.577c.269.143.549.256.835.341a4.402 4.402 0 00-.837.34v.001z"/></g><defs><clipPath id="clip0_84368_404323"><path fill="#fff" d="M0 0h86.377v96H0z"/></clipPath></defs></svg>