<svg width="87" height="96" viewBox="0 0 87 96" fill="none" xmlns="http://www.w3.org/2000/svg">
<g clip-path="url(#clip0_84368_404323)">
<path d="M63.4172 77.6527C62.5943 77.6527 61.9238 76.9822 61.9238 76.1593C61.9238 75.3365 62.5943 74.666 63.4172 74.666C64.24 74.666 64.9105 75.3365 64.9105 76.1593C64.9105 76.9822 64.24 77.6527 63.4172 77.6527Z" fill="#23211F"/>
<path d="M18.9496 91.326C14.9972 91.326 12.9458 88.4422 12.1077 87.2651C12.022 87.1451 11.9496 87.0422 11.8867 86.9622L13.7191 85.547C13.7972 85.6479 13.8886 85.7755 13.9934 85.9222C14.9134 87.2155 16.6296 89.6251 20.3229 88.8632C20.4429 88.8384 20.561 88.806 20.6772 88.766C19.8258 88.3565 19.0105 87.7127 18.2639 86.7717C16.5458 84.606 17.1953 82.3736 18.5267 81.2175C20.3629 79.6213 22.7305 80.2098 24.0258 81.5717C25.2258 82.8346 25.6239 84.8136 25.0905 86.7889C26.9896 86.2651 29.0277 84.9527 30.9515 83.5413C32.1439 82.667 32.6886 82.267 33.4315 82.6194C34.4372 83.0956 34.2924 84.2098 34.0543 86.0536C33.9781 86.6479 33.8505 87.6251 33.8467 88.2441C35.3172 87.7755 39.1248 85.5717 41.7458 81.1679L43.7362 82.3527C41.7077 85.7622 39.0829 87.8613 37.7001 88.8079C36.6315 89.5394 33.9915 91.1679 32.561 90.4879C31.2391 89.8594 31.4677 87.9946 31.7477 85.8251C29.9362 87.1317 26.8467 89.1813 23.7629 89.3489C22.9801 90.2632 21.9534 90.8917 20.7896 91.1317C20.1343 91.267 19.521 91.3279 18.9477 91.3279L18.9496 91.326ZM21.0848 82.5641C20.6924 82.5641 20.3267 82.7203 20.0467 82.9641C19.7915 83.187 19.0353 84.0155 20.0791 85.3317C20.8124 86.2575 21.6601 86.7603 22.5801 86.9451C22.6658 86.7622 22.742 86.5698 22.8048 86.3679C23.1953 85.1241 23.0162 83.867 22.3496 83.166C21.9439 82.7394 21.4981 82.5641 21.0848 82.5641Z" fill="#23211F"/>
<path d="M34.1532 95.6897C33.9551 95.6897 33.8294 95.6897 33.8008 95.6897L33.8084 93.3735C33.856 93.3735 38.5322 93.3868 39.9284 93.2363L40.1741 95.5392C38.877 95.6782 35.3017 95.6897 34.1532 95.6897Z" fill="#23211F"/>
<path d="M25.6574 95.7718C24.8345 95.7718 24.1641 95.1013 24.1641 94.2785C24.1641 93.4556 24.8345 92.7852 25.6574 92.7852C26.4803 92.7852 27.1507 93.4556 27.1507 94.2785C27.1507 95.1013 26.4803 95.7718 25.6574 95.7718Z" fill="#23211F"/>
<path d="M47.2163 95.999L46.9668 93.6962C48.5992 93.519 53.0677 93.4276 53.2563 93.4219L53.3039 95.7362C53.2582 95.7362 48.7477 95.8314 47.2144 95.9971L47.2163 95.999Z" fill="#23211F"/>
<path d="M40.8562 91.3753L39.9609 89.24C45.3647 86.9772 46.5457 84.1524 47.2505 82.4667C47.5705 81.6991 47.8486 81.0362 48.4219 80.6153C48.839 80.3105 49.3647 80.28 49.7952 80.5353C50.6162 81.0248 50.5095 81.7886 50.1971 84.0534C50.0619 85.0305 49.7457 87.3238 49.8333 88.4915C50.6771 87.7734 52.0524 86.3029 52.9552 85.3391C56.0447 82.0362 57.079 81.0191 58.26 81.5867C59.6143 82.2362 59.2009 84.0191 58.5762 86.72C58.4181 87.4038 58.2028 88.3372 58.1152 88.9581C59.2676 88.88 61.6124 88.4476 63.7628 87.5943C63.0981 86.8019 62.6276 85.8495 62.3781 84.7715C61.8733 82.5962 62.7609 80.0686 65.4371 79.4419C68.0047 78.8419 69.8695 80.5581 70.3228 82.48C70.6505 83.8705 70.5038 85.8248 68.2676 87.6743C69.8352 88.0381 71.7571 87.8953 73.7724 87.2419L74.4886 89.4438C71.1857 90.5181 68.1114 90.4343 65.799 89.2172C63.9762 90.0991 62.0695 90.6038 60.9647 90.8495C57.2771 91.6648 56.5819 91.0991 56.3514 90.9143C55.4067 90.1467 55.7514 88.661 56.3209 86.2C56.4086 85.8172 56.5209 85.3334 56.62 84.8629C55.9762 85.5067 55.2333 86.301 54.6486 86.9257C51.4238 90.3715 50.2809 91.4572 49.0809 91.1353C47.5819 90.7334 47.3838 88.8743 47.5609 86.6305C46.3343 88.1981 44.3324 89.9219 40.8581 91.3772L40.8562 91.3753ZM57.5 88.9505L66.4086 81.6457C66.2466 81.6457 66.0943 81.6648 65.9647 81.6953C65.0828 81.901 64.2695 82.68 64.6333 84.2457C64.8466 85.1676 65.2828 85.9276 65.9324 86.5124C66.4352 86.1943 66.8866 85.8419 67.26 85.4534C68.2562 84.4153 68.199 83.56 68.0695 83.0095C67.8162 81.9372 67.0371 81.6457 66.4105 81.6457L57.5 88.9505Z" fill="#23211F"/>
<path d="M61.0629 0C54.1638 0 47.8838 2.68952 43.1867 7.09143C38.4914 2.68952 32.2114 0 25.3124 0C13.301 0 3.16571 8.15429 0 19.301L13.0895 60.7105C12.0838 45.3829 30.9371 43.739 33.7314 57.899C37.9981 79.5276 64.8724 74.4038 60.8476 55.1905L57.3295 56.0152C57.981 58.7886 56.0743 61.8876 53.4857 62.2152C44.0952 63.4 45.4514 42.8343 61.1295 44.4C70.1676 45.3029 74.1638 53.1124 75.939 57.9867L86.3771 19.3029C83.2095 8.15429 73.0762 0 61.0629 0ZM34.4152 27.9752C34.3162 28.0267 34.2171 28.0838 34.1219 28.1448C33.8438 28.32 33.581 28.5276 33.339 28.7695C33.0971 29.0114 32.8876 29.2762 32.7124 29.5543C32.6514 29.6495 32.5943 29.7467 32.5429 29.8476C32.4 30.1162 32.2876 30.3962 32.2019 30.6819C32.12 30.3962 32.0038 30.1162 31.8629 29.8495C31.8114 29.7505 31.7543 29.6514 31.6933 29.5562C31.5181 29.2781 31.3105 29.0152 31.0686 28.7733C30.8267 28.5314 30.5619 28.3219 30.2857 28.1467C30.1905 28.0857 30.0933 28.0286 29.9924 27.9771C29.7238 27.8343 29.4438 27.7219 29.1581 27.6362C29.4438 27.5505 29.7238 27.4381 29.9924 27.2952C30.0933 27.2419 30.1905 27.1867 30.2857 27.1257C30.5638 26.9505 30.8267 26.741 31.0686 26.499C31.3105 26.2571 31.5181 25.9943 31.6933 25.7162C31.7543 25.621 31.8133 25.5219 31.8629 25.4229C32.0057 25.1543 32.12 24.8724 32.2038 24.5848C32.2876 24.8724 32.4019 25.1543 32.5448 25.4229C32.5981 25.5238 32.6533 25.621 32.7143 25.7162C32.8895 25.9943 33.099 26.2571 33.341 26.499C33.5829 26.741 33.8457 26.9486 34.1238 27.1238C34.219 27.1848 34.3181 27.2438 34.4171 27.2933C34.6857 27.4362 34.9657 27.5486 35.2514 27.6343C34.9638 27.7181 34.6838 27.8305 34.4152 27.9733V27.9752ZM55.4895 27.9752C55.3905 28.0267 55.2914 28.0838 55.1962 28.1448C54.9181 28.32 54.6552 28.5276 54.4133 28.7695C54.1714 29.0114 53.9619 29.2762 53.7867 29.5543C53.7257 29.6495 53.6686 29.7467 53.6171 29.8476C53.4743 30.1162 53.3619 30.3962 53.2762 30.6819C53.1943 30.3962 53.0781 30.1162 52.9371 29.8495C52.8857 29.7505 52.8286 29.6514 52.7676 29.5562C52.5924 29.2781 52.3848 29.0152 52.1429 28.7733C51.901 28.5314 51.6362 28.3219 51.36 28.1467C51.2648 28.0857 51.1676 28.0286 51.0667 27.9771C50.7981 27.8343 50.5181 27.7219 50.2324 27.6362C50.5181 27.5505 50.7981 27.4381 51.0667 27.2952C51.1676 27.2419 51.2648 27.1867 51.36 27.1257C51.6381 26.9505 51.901 26.741 52.1429 26.499C52.3848 26.2571 52.5924 25.9943 52.7676 25.7162C52.8286 25.621 52.8876 25.5219 52.9371 25.4229C53.08 25.1543 53.1943 24.8724 53.2781 24.5848C53.3619 24.8724 53.4762 25.1543 53.619 25.4229C53.6724 25.5238 53.7276 25.621 53.7886 25.7162C53.9638 25.9943 54.1733 26.2571 54.4152 26.499C54.6571 26.741 54.92 26.9486 55.1981 27.1238C55.2933 27.1848 55.3924 27.2438 55.4914 27.2933C55.76 27.4362 56.04 27.5486 56.3257 27.6343C56.0381 27.7181 55.7581 27.8305 55.4895 27.9733V27.9752Z" fill="#23211F"/>
</g>
<defs>
<clipPath id="clip0_84368_404323">
<rect width="86.3771" height="96" fill="white"/>
</clipPath>
</defs>
</svg>
