<svg xmlns="http://www.w3.org/2000/svg" width="32" height="32"><path fill="#f5c518" d="M4.8 0h22.4C29.853 0 32 2.148 32 4.8v22.4c0 2.652-2.148 4.8-4.8 4.8H4.8A4.799 4.799 0 010 27.2V4.8C0 2.147 2.148 0 4.8 0z" stroke-width=".26"/><path d="M6.5 20.5v-9H4v9zm5.313-9l-.563 4.188-.313-2.25-.312-1.938H7.5v9h2.125v-5.938L10.5 20.5h1.563l.812-6.063V20.5H15v-9zm4.187 9v-9h3.875c.938 0 1.625.688 1.625 1.563v5.874c0 .875-.688 1.563-1.625 1.563zm2.938-7.375l-.563-.063v5.876c.313 0 .563-.063.625-.188.125-.125.125-.5.125-1.125v-4.25zm7.25.625h.187c.875 0 1.625.688 1.625 1.563v3.624c0 .875-.75 1.563-1.625 1.563h-.188c-.5 0-1-.25-1.312-.688l-.125.563H22.5V11.5h2.375v2.875a1.759 1.759 0 011.313-.625zm-.5 4.375V16l-.063-.688c-.063-.124-.25-.187-.375-.187s-.313.063-.375.188v3.562c.063.125.25.188.375.188s.375-.063.375-.188z"/></svg>