<svg xmlns="http://www.w3.org/2000/svg" width="32" height="32">
	<path d="M5.895 10.105a5.894 5.894 0 1 0 5.052 8.932l-.011-.02a5.884 5.884 0 0 1-.327-.634c-.01-.023-.021-.044-.03-.067a5.857 5.857 0 0 1-.132-.337l-.031-.092a5.853 5.853 0 0 1-.07-.227c-.014-.046-.029-.09-.041-.137a5.851 5.851 0 0 1-.069-.287l-.011-.049-.01-.05a5.834 5.834 0 0 1-.045-.274l-.022-.17a5.956 5.956 0 0 1-.021-.209l-.01-.123a5.924 5.924 0 0 1-.002-.693l.014-.18a5.884 5.884 0 0 1 .084-.607l.006-.03a5.844 5.844 0 0 1 .314-1.056l.02-.049c.042-.102.087-.202.135-.3l.007-.016.034-.067c.043-.087.088-.175.136-.26l.02-.035.062-.105a5.89 5.89 0 0 0-5.052-2.858Z" fill="#ff8000" />
	<path d="M16 10.105a5.89 5.89 0 0 0-5.053 2.858c.553.917.844 1.967.842 3.037a5.866 5.866 0 0 1-.842 3.037A5.89 5.89 0 0 0 16 21.895a5.892 5.892 0 0 0 5.055-2.86c-.035-.057-.071-.113-.104-.172a5.88 5.88 0 0 1-.084-.158l-.027-.053a5.872 5.872 0 0 1-.219-.486l-.016-.041a5.847 5.847 0 0 1-.203-.623l-.017-.072a5.886 5.886 0 0 1-.076-.354c-.01-.05-.02-.1-.028-.15l-.006-.041a5.845 5.845 0 0 1-.056-.545l-.004-.084a5.891 5.891 0 0 1-.006-.256c0-.089.004-.177.008-.266 0-.017 0-.035.002-.052a5.901 5.901 0 0 1 .054-.555l.01-.059a5.829 5.829 0 0 1 .07-.369l.02-.08.027-.111c.021-.08.044-.16.069-.238l.029-.092c.01-.03.019-.062.03-.092a5.864 5.864 0 0 1 .2-.504l.063-.137.006-.011c.028-.059.058-.117.088-.174l.012-.024.093-.168.06-.105v-.002A5.89 5.89 0 0 0 16 10.105Zm-5.135 2.999zm-.178.341zm-.154.35zm-.144.398zm-.09.31zm-.086.378zm-.068.453zm-.03.334zm-.01.332Zm.022.484zm.043.38zm.066.372zm.11.424zm.101.319zm.162.404zm.168.35z" fill="#00e054" />
	<path d="m10.947 12.963-.062.105a5.866 5.866 0 0 0-.78 2.932 5.86 5.86 0 0 0 .842 3.037A5.866 5.866 0 0 0 11.79 16a5.866 5.866 0 0 0-.842-3.037z" fill="#fff"/>
	<path d="M26.104 10.105a5.89 5.89 0 0 0-5.053 2.858c.553.916.845 1.967.844 3.037a5.866 5.866 0 0 1-.842 3.037 5.891 5.891 0 0 0 5.05 2.857 5.894 5.894 0 1 0 0-11.789zm-5.153 8.758c-.03-.052-.056-.105-.084-.158.028.053.055.106.084.158zm.04-5.795zm-.262.514zm-.147.354zm-.228.763c-.012.05-.022.1-.032.15.01-.05.02-.1.032-.15zm-.14 1.557.005.084-.004-.084zm.095.82zm.234.88zm.078.21z" fill="#40bcf4"/>
	<path d="m21.05 12.963-.06.105A5.866 5.866 0 0 0 20.21 16a5.86 5.86 0 0 0 .844 3.037A5.866 5.866 0 0 0 21.895 16a5.866 5.866 0 0 0-.844-3.037Z" fill="#fff"/>
</svg>