<?xml version="1.0" encoding="UTF-8" standalone="no"?>
<svg
   viewBox="0 0 800 320"
   version="1.1"
   id="svg2"
   sodipodi:docname="trace-OPTI.svg"
   width="800"
   height="320"
   inkscape:version="1.4 (86a8ad7, 2024-10-11)"
   xmlns:inkscape="http://www.inkscape.org/namespaces/inkscape"
   xmlns:sodipodi="http://sodipodi.sourceforge.net/DTD/sodipodi-0.dtd"
   xmlns="http://www.w3.org/2000/svg"
   xmlns:svg="http://www.w3.org/2000/svg">
  <defs
     id="defs2" />
  <sodipodi:namedview
     id="namedview2"
     pagecolor="#ffffff"
     bordercolor="#000000"
     borderopacity="0.25"
     inkscape:showpageshadow="2"
     inkscape:pageopacity="0.0"
     inkscape:pagecheckerboard="0"
     inkscape:deskcolor="#d1d1d1"
     inkscape:zoom="1.4923574"
     inkscape:cx="412.09966"
     inkscape:cy="145.07248"
     inkscape:window-width="2560"
     inkscape:window-height="1001"
     inkscape:window-x="-9"
     inkscape:window-y="-9"
     inkscape:window-maximized="1"
     inkscape:current-layer="svg2" />
  <g
     id="g2"
     transform="matrix(1.0185117,0,0,1.0185117,-7.4046838,0)">
    <path
       fill="#fcb454"
       fill-rule="evenodd"
       d="m 596.27634,1.245012 c -0.263,0.688 -0.361,28.925 -0.218,62.75 l 0.259,61.499998 2.099,0.3 c 3.232,0.461 61.656,-59.883998 61.216,-63.228998 -0.472,-3.585 -57.59,-62.56000002 -60.596,-62.566000023662 -1.255,-0.0029999963 -2.497,0.558000003662 -2.76,1.245000023662"
       id="path1" />
    <path
       fill="#547cbc"
       fill-rule="evenodd"
       d="m 266.33744,40.756012 -39.25,40.739 0.25,115.999998 0.25,116 h 2.567 c 2.068,0 10.172,-7.863 41.743,-40.5 l 39.177,-40.5 -0.243,-116 -0.244,-115.99999802 -2.5,-0.239 c -2.101,-0.201 -8.764,6.26200002 -41.75,40.50000002 m 181.583,-19.63 c -105.764,6.905 -154.858,138.197998 -79.934,213.766998 l 8.67,8.745 -15.33,15.928 c -60.563,62.93 -61.984,54.429 9.1,54.429 h 56.204 l 48.479,-50.134 c 26.663,-27.574 53.057,-54.984 58.654,-60.91 l 10.177,-10.776 14.485,19.223 c 64.521,85.625 176.015,81.224 221.793,-8.757 40.208,-79.032 -22.167,-185.446998 -106.353,-181.443998 l -6.278,0.298 v 82.909998 l 6.5,1.308 c 51.464,10.36 41.876,86.325 -10.344,81.955 -18.001,-1.506 -19.897,-3.39 -68.221,-67.777 -43.279,-57.665998 -48.239,-63.604998 -61.36,-73.475998 -25.034,-18.833 -54.187,-27.382 -86.242,-25.289 m -0.582,85.413998 c -37.749,10.165 -41.977,60.952 -6.474,77.77 l 6.723,3.185 46.349,0.297 c 25.492,0.163 46.192,-0.062 46,-0.501 -1.293,-2.956 -52.241,-69.442 -55.204,-72.04 -9.95,-8.722 -24.642,-12.145 -37.394,-8.711 m -343.178,101.987 c -77.285997,79.933 -97.1389968,100.987 -96.8879968,102.75 l 0.315,2.218 56.1139998,0.258 56.114997,0.259 40.287,-41.595 c 22.157,-22.877 41.793,-43.398 43.635,-45.603 l 3.349,-4.008 v -55.471 c 0,-56.788 -0.168,-59.34 -3.897,-59.34 -1.112,0 -39.858,39.334 -99.03,100.532"
       id="path2" />
  </g>
</svg>
