<svg width="800" height="320" xmlns="http://www.w3.org/2000/svg"><g fill-rule="evenodd"><path fill="#fcb454" d="M599.91 1.268c-.268.7-.368 29.46-.222 63.912l.264 62.638 2.137.306c3.292.47 62.798-60.993 62.35-64.4C663.958 60.073 605.782.006 602.72 0c-1.278-.003-2.543.568-2.811 1.268"/><path fill="#547cbc" d="M263.863 41.51l-39.976 41.494.254 118.147.255 118.147h2.614c2.107 0 10.36-8.008 42.516-41.25l39.902-41.25-.247-118.146L308.932.504l-2.546-.243c-2.14-.205-8.926 6.378-42.523 41.25m184.945-19.994c-107.722 7.033-157.725 140.756-81.414 217.724l8.83 8.907-15.613 16.223c-61.685 64.095-63.132 55.437 9.268 55.437h57.244l49.377-51.062c27.156-28.085 54.039-56.002 59.74-62.038l10.365-10.976 14.753 19.58c65.716 87.21 179.273 82.727 225.899-8.92 40.952-80.495-22.577-188.88-108.322-184.803l-6.394.304v84.445l6.62 1.332c52.417 10.552 42.651 87.923-10.535 83.472-18.334-1.534-20.266-3.453-69.484-69.032-44.08-58.733-49.132-64.782-62.496-74.836-25.497-19.181-55.19-27.889-87.838-25.757m-.593 86.995c-38.448 10.353-42.754 62.08-6.594 79.21l6.847 3.244 47.207.302c25.964.166 47.047-.063 46.852-.51-1.317-3.01-53.208-70.727-56.226-73.373-10.134-8.884-25.098-12.37-38.086-8.873M98.684 212.387C19.967 293.8-.253 315.244.002 317.04l.321 2.26 57.153.262 57.154.264 41.033-42.365c22.567-23.3 42.566-44.201 44.442-46.447l3.411-4.082v-56.498c0-57.84-.17-60.439-3.969-60.439-1.132 0-40.596 40.062-100.863 102.393"/></g></svg>