<svg xmlns="http://www.w3.org/2000/svg" viewBox="0 0 113.97 37.77"><g id="Layer_2" data-name="Layer 2"><g id="Layer_1-2" data-name="Layer 1"><path d="M112.51,27.28a18.31,18.31,0,0,0-.6-14.3L106.7,2,94.55,3A18.35,18.35,0,0,0,81.87,9.58l-2.8.13a1.5,1.5,0,0,0-1.43,1.56,1.47,1.47,0,0,0,.17.61l1.27,2.44a18.2,18.2,0,0,0,.62,15l5.19,10.4,11.6-.7a18.27,18.27,0,0,0,13.32-7l2.74-.12A1.48,1.48,0,0,0,114,30.39a1.46,1.46,0,0,0-.16-.62Z" transform="translate(0 -1.96)" fill="#fff"></path><path d="M102.56,24.72a4.36,4.36,0,0,0,.27-4.13L104,18.65,102,17.53a4.68,4.68,0,0,0-5.24-4.05,4.26,4.26,0,0,0-1.21.33l-1.94-1.13L92.5,14.62a4.69,4.69,0,0,0-4,5.26,4.92,4.92,0,0,0,.32,1.18l-1.13,2,2,1.13a4.67,4.67,0,0,0,5.26,4,4.61,4.61,0,0,0,1.16-.3L98,29,99.11,27A4.37,4.37,0,0,0,102.56,24.72Z" transform="translate(0 -1.96)" fill="#10b990"></path><path d="M88.56,33.37l-.2-.37c-3.29-6.19-6.48-11.81-2.92-18a.57.57,0,0,0,.08-.13l-6.27-3.62,1.55,3a16.73,16.73,0,0,0,.29,14.38l4.73,9.48,2.74-4.74Z" transform="translate(0 -1.96)" fill="#234d69"></path><path d="M106.09,26.76a.83.83,0,0,0-.07.13,11.39,11.39,0,0,1-7.41,5.51,45.08,45.08,0,0,1-9.63,1l-.42,0h0l-2.73,4.73,10.57-.64A16.72,16.72,0,0,0,109,30.53l3.36-.15Z" transform="translate(0 -1.96)" fill="#173f58"></path><path d="M101.61,10.78a11.81,11.81,0,0,1,4.48,16l6.27,3.62-1.57-3a16.72,16.72,0,0,0-.3-13.71l-4.75-10-4.13,7.17Z" transform="translate(0 -1.96)" fill="#d65357"></path><path d="M101.61,10.78h0l4.13-7.17-11.06.9a16.74,16.74,0,0,0-12,6.6l-3.41.15,6.27,3.63A11.82,11.82,0,0,1,101.61,10.78Z" transform="translate(0 -1.96)" fill="#eb5e60"></path><rect x="3.95" y="37.29" width="0.91" height="0.92" transform="translate(-25.31 12.08) rotate(-44.77)" fill="#464646" stroke="#464646" stroke-width="0.3"></rect><path d="M7.55,32.56a5.88,5.88,0,0,1,.16,1.18,1.7,1.7,0,0,1-.1.59.87.87,0,0,1-.31.4,1.28,1.28,0,0,1-.38.21,3.18,3.18,0,0,1-.53.14c-.2,0-.43.08-.69.11l-.82.05-1,0a4.51,4.51,0,0,1-2.31-.47,1.52,1.52,0,0,1-.8-1.42,2.5,2.5,0,0,1,.13-.81l-.54-.18a3.17,3.17,0,0,0-.22,1.14,2,2,0,0,0,.94,1.8,5.52,5.52,0,0,0,2.9.6H4a7,7,0,0,0,3.66-.64,1.85,1.85,0,0,0,.66-1.62,4.36,4.36,0,0,0-.21-1.24Z" transform="translate(0 -1.96)" fill="#464646" stroke="#464646" stroke-width="0.3"></path><rect x="11.05" y="37.29" width="0.91" height="0.92" transform="translate(-23.32 17.23) rotate(-45)" fill="#464646" stroke="#464646" stroke-width="0.3"></rect><rect x="9.75" y="37.29" width="0.91" height="0.92" transform="translate(-23.62 16.17) rotate(-44.77)" fill="#464646" stroke="#464646" stroke-width="0.3"></rect><path d="M10.78,35.92h-.17a6,6,0,0,0,.73,0,3.39,3.39,0,0,0,.55-.13,1.11,1.11,0,0,0,.39-.2A2,2,0,0,0,13,33.83a5.15,5.15,0,0,0-.2-1.4l-.56.14a6.14,6.14,0,0,1,.16,1.28,1.31,1.31,0,0,1-.53,1.23,2.53,2.53,0,0,1-1.22.19h.22a1,1,0,0,1-.89-.39,1.75,1.75,0,0,1-.3-1.09v-4L9,30V33.8a2.49,2.49,0,0,0,.44,1.61,1.62,1.62,0,0,0,1.3.51Z" transform="translate(0 -1.96)" fill="#464646" stroke="#464646" stroke-width="0.3"></path><rect x="18.42" y="37.29" width="0.91" height="0.92" transform="translate(-21.16 22.44) rotate(-45)" fill="#464646" stroke="#464646" stroke-width="0.3"></rect><rect x="17.07" y="37.29" width="0.91" height="0.92" transform="translate(-21.56 21.5) rotate(-45.02)" fill="#464646" stroke="#464646" stroke-width="0.3"></rect><path d="M34.22,34.41c.28-.8.7-1.19,1.26-1.19a1,1,0,0,1,.59.17,1.07,1.07,0,0,1,.39.5,1.06,1.06,0,0,1,.1.3,1.37,1.37,0,0,1,0,.35.87.87,0,0,1-.23.65.94.94,0,0,1-.66.23,2,2,0,0,1-1.44-.85l-.06-.07ZM36.7,33.1a1.19,1.19,0,0,0-.19-.2l-.22-.16L36,32.63a1.31,1.31,0,0,0-.27-.06,1.63,1.63,0,0,0-.31,0c-.68,0-1.23.49-1.66,1.44a4.15,4.15,0,0,1-.42.74,1.27,1.27,0,0,1-1,.55h-.09a.94.94,0,0,1-.79-.34,1.67,1.67,0,0,1-.34-1l-.07-.83-.55.06v.17a1.72,1.72,0,0,1,0,.32v.38a1.5,1.5,0,0,1-.22.88.74.74,0,0,1-.67.32A.92.92,0,0,1,29,35a1.15,1.15,0,0,1-.29-.73l-.07-1-.55.06,0,.17v.05s0,0,0,0V34a2.8,2.8,0,0,1,0,.4,1.18,1.18,0,0,1-.21.49.84.84,0,0,1-.37.3,1.17,1.17,0,0,1-.53.1,1,1,0,0,1-1.07-1l-.07-1-.55.06,0,.17c0,.18,0,.35,0,.5a1.38,1.38,0,0,1,0,.4,1,1,0,0,1-.46.67,1.7,1.7,0,0,1-.94.22H20.59a1,1,0,0,1-.78-.28,1.23,1.23,0,0,1-.34-.81l-.06-1-.56.06,0,.28c0,.16,0,.33,0,.51a2.32,2.32,0,0,1,0,.46c-.1.55-.6.83-1.5.83h-.59a1.25,1.25,0,0,1-.5-.11,1,1,0,0,1-.38-.31,1.59,1.59,0,0,1-.26-.5l-.27-.87-.57.21a6.82,6.82,0,0,1,.27.84,3.2,3.2,0,0,1,.09.75,2.47,2.47,0,0,1-.69,1.78,3.55,3.55,0,0,1-1.38.8h0l.29.52h0a3,3,0,0,0,2.33-2.6l.05-.32a1,1,0,0,0,.66.43,2.19,2.19,0,0,0,.36,0h.61a2.09,2.09,0,0,0,1.84-.83l.13.23a1.31,1.31,0,0,0,1.19.6H23.9a1.8,1.8,0,0,0,1.73-.84,1.34,1.34,0,0,0,1.36.84,1.7,1.7,0,0,0,1.47-.79,1.28,1.28,0,0,0,1.25.79A1.44,1.44,0,0,0,31,35a1.22,1.22,0,0,0,1.22.88h.2a1.8,1.8,0,0,0,1.32-.69l.11-.14.12.13a2.37,2.37,0,0,0,1.74.81,1.36,1.36,0,0,0,1.1-.45,1.8,1.8,0,0,0,.3-1.13,2,2,0,0,0-.45-1.36Z" transform="translate(0 -1.96)" fill="#464646" stroke="#464646" stroke-width="0.3"></path><path d="M40.48,35.93h.46l.15,0,.17,0,.23,0-.06.23c-.26,1-1.13,1.67-2.6,2l.21.54a4,4,0,0,0,2.24-1.15A3.24,3.24,0,0,0,42,35.2a4.5,4.5,0,0,0-.29-1.66,2.82,2.82,0,0,0-.25-.49,1.31,1.31,0,0,0-.7-.55,1.74,1.74,0,0,0-.45-.06,1.44,1.44,0,0,0-1.35.94,2.88,2.88,0,0,0-.2.56,2.78,2.78,0,0,0-.06.58,1.31,1.31,0,0,0,.42,1.07A2,2,0,0,0,40.48,35.93ZM39.4,33.85a1.5,1.5,0,0,1,.2-.4,1,1,0,0,1,.29-.25.85.85,0,0,1,.38-.09c.7,0,1.09.63,1.17,1.9v.13l-.12,0a3,3,0,0,1-.84.15,1.6,1.6,0,0,1-.88-.22.74.74,0,0,1-.31-.66,1.7,1.7,0,0,1,.1-.59Z" transform="translate(0 -1.96)" fill="#464646" stroke="#464646" stroke-width="0.3"></path><rect x="56.12" y="30.69" width="0.88" height="0.89" transform="translate(-5.45 47.15) rotate(-45)" fill="#464646" stroke="#464646" stroke-width="0.3"></rect><path d="M55.8,31.14l-.63-.63-.62.62.62.63Z" transform="translate(0 -1.96)" fill="#464646" stroke="#464646" stroke-width="0.3"></path><path d="M56.5,29.89l-.63-.64-.63.63.63.63Z" transform="translate(0 -1.96)" fill="#464646" stroke="#464646" stroke-width="0.3"></path><rect x="62.99" y="29.26" width="0.91" height="0.92" transform="translate(-2.43 51.6) rotate(-45)" fill="#464646" stroke="#464646" stroke-width="0.3"></rect><rect x="61.63" y="29.26" width="0.91" height="0.92" transform="translate(-2.83 50.64) rotate(-45)" fill="#464646" stroke="#464646" stroke-width="0.3"></rect><path d="M67.8,32.43l-.56.14c.05.22.09.44.12.67a4.08,4.08,0,0,1,0,.61,1.31,1.31,0,0,1-.52,1.23,1.88,1.88,0,0,1-1,.19h-.49A4.56,4.56,0,0,1,64,35.09L63.7,35l.21-.17a1.92,1.92,0,0,0,.79-1.49,1.86,1.86,0,0,0-1-1.63l-.2-.1-.22-.05a1,1,0,0,0-.24,0,1.23,1.23,0,0,0-.72.23,1.87,1.87,0,0,0-1,1.51,1.81,1.81,0,0,0,.19.83,2.28,2.28,0,0,0,.59.72l.2.17-.24.1a5.41,5.41,0,0,1-1.7.18h-.23a1,1,0,0,1-.79-.34A1.7,1.7,0,0,1,59,34l-.07-.83-.56.06,0,.17c0,.11,0,.21,0,.32s0,.24,0,.38a1.44,1.44,0,0,1-.23.88.73.73,0,0,1-.66.32.91.91,0,0,1-.7-.25,1,1,0,0,1-.29-.72l-.08-1-.54.06v.22a.09.09,0,0,1,0,0v.1a.13.13,0,0,1,0,.06V34a2.6,2.6,0,0,1,0,.4,1.18,1.18,0,0,1-.2.49,1,1,0,0,1-.38.31,1.3,1.3,0,0,1-.52.1,1.1,1.1,0,0,1-.76-.26,1,1,0,0,1-.31-.73l-.08-1-.55.06,0,.17c0,.18,0,.34,0,.5a2.69,2.69,0,0,1,0,.4,1,1,0,0,1-.46.67,1.8,1.8,0,0,1-.94.23H48.28a1.06,1.06,0,0,1-1.13-1l-.41-2.94-.54.12v.09l0,.13-.13,0c-1.73.53-2.6,1.28-2.6,2.23a1.11,1.11,0,0,0,0,.36,1,1,0,0,0,.11.29,1.63,1.63,0,0,0,1.5.69,1.8,1.8,0,0,0,.69-.13,2.07,2.07,0,0,0,.62-.38l.2-.18.06.26a1.36,1.36,0,0,0,.27.6,1.14,1.14,0,0,0,.51.35,2.3,2.3,0,0,0,.74.12h3.49a1.79,1.79,0,0,0,1.71-.84,1.38,1.38,0,0,0,1.37.84,1.74,1.74,0,0,0,1.47-.79,1.3,1.3,0,0,0,1.25.79,1.44,1.44,0,0,0,1.33-.9,1.21,1.21,0,0,0,1.21.89h.29a4.18,4.18,0,0,0,2.53-.65L63,35.2l.1.07a3.86,3.86,0,0,0,2.36.65h.47a3.23,3.23,0,0,0,.82-.1,1.61,1.61,0,0,0,.59-.28A2,2,0,0,0,68,33.83,5,5,0,0,0,67.8,32.43Zm-21.37,1.5a1,1,0,0,1-.42.48,1.66,1.66,0,0,1-.88.27,1.51,1.51,0,0,1-.42,0,.89.89,0,0,1-.31-.15.55.55,0,0,1-.2-.25.71.71,0,0,1-.07-.35,1.09,1.09,0,0,1,.5-.85,5.82,5.82,0,0,1,1.5-.74h0l.18-.06,0,.19,0,.14.11.7a1.28,1.28,0,0,1-.06.67Zm16.81.64a.39.39,0,0,1-.23.07.57.57,0,0,1-.33-.13,2.67,2.67,0,0,1-.38-.37l-.2-.27A1.66,1.66,0,0,1,62,33.6a.84.84,0,0,1,0-.27,1,1,0,0,1,.36-.73,2.76,2.76,0,0,1,.37-.31.6.6,0,0,1,.32-.1.9.9,0,0,1,.58.25,2.54,2.54,0,0,1,.29.28A1.49,1.49,0,0,1,64,33a.85.85,0,0,1,.06.31,1.22,1.22,0,0,1-.37.81l-.25.27a.94.94,0,0,1-.23.16Z" transform="translate(0 -1.96)" fill="#464646" stroke="#464646" stroke-width="0.3"></path><rect x="66.04" y="30.12" width="0.91" height="0.92" transform="translate(-2.14 54.04) rotate(-45.02)" fill="#464646" stroke="#464646" stroke-width="0.3"></rect><path d="M9.1,12.72l2.22-2.22L9.09,8.15l-.19.19-2,2Z" transform="translate(0 -1.96)" fill="#464646"></path><path d="M16.84,9.29l-.49.16L14,10.21l-.57.19.26.52a11.64,11.64,0,0,1,.66,1.49,9.64,9.64,0,0,1,.4,1.49,8.11,8.11,0,0,1,.13,1.47,5.08,5.08,0,0,1-1.36,3.88A6,6,0,0,1,9.32,20.5a11.78,11.78,0,0,1-1.23-.06A9.87,9.87,0,0,1,7,20.28,6.08,6.08,0,0,1,6.1,20a4.23,4.23,0,0,1-.76-.4,4.31,4.31,0,0,1-.62-.51,3.23,3.23,0,0,1-.47-.63,3.91,3.91,0,0,1-.34-.75,6.31,6.31,0,0,1-.2-.86,7.93,7.93,0,0,1-.07-1,11.5,11.5,0,0,1,1-4.4l.2-.46-.5-.19L2.15,10l-.5-.19-.2.47A13.83,13.83,0,0,0,.16,15.89a7.32,7.32,0,0,0,2.3,5.87q2.33,2,6.77,2a12.6,12.6,0,0,0,3.56-.45,8,8,0,0,0,2.76-1.38,6.87,6.87,0,0,0,1.9-2.28,8.22,8.22,0,0,0,.68-1.85,8.68,8.68,0,0,0,.23-2,15.4,15.4,0,0,0-1.32-6Z" transform="translate(0 -1.96)" fill="#464646"></path><path d="M51.1,8.24l.15.15.14-.15,1.8-1.8.14-.13-.14-.15-1.8-1.8-.15-.15-.15.15L49.3,6.15l-.15.15.15.15Z" transform="translate(0 -1.96)" fill="#464646"></path><path d="M49.07,11.64l.15.15.15-.15,1.79-1.78.06-.07.06-.06,0,.06.06.05,1.8,1.8.14.15.14-.15,1.8-1.79.15-.15-.15-.14-1.8-1.8-.15-.15-.13.15-1.8,1.8-.07.06-.06,0,0,0-.07-.06-1.8-1.8-.14-.15-.14.15-1.8,1.8-.15.13.15.15Z" transform="translate(0 -1.96)" fill="#464646"></path><path d="M62.39,10.69l.19.19.19-.19,1.84-1.84.19-.19-.19-.19L62.75,6.61l-.19-.19-.19.19L60.53,8.46l-.19.19.19.19Z" transform="translate(0 -1.96)" fill="#464646"></path><path d="M67.44,12.49,67.29,12l-.46.13-2.06.51-.49.12.12.49c.1.4.18.78.24,1.16s.12.73.15,1.08a8.47,8.47,0,0,1,.06,1c0,1.15-.28,1.88-.83,2.2a2.21,2.21,0,0,1-.75.25,5.2,5.2,0,0,1-1.11.09h-1a1.58,1.58,0,0,1-1.28-.53,3.24,3.24,0,0,1-.55-1.81l-.2-2.39-.05-.52-.52.06-2.09.24-.48.06,0,.49.07.77c0,.23,0,.47,0,.72s0,.57,0,.89a2.69,2.69,0,0,1-.3,1.57,1,1,0,0,1-.94.44,1.93,1.93,0,0,1-.82-.15,1,1,0,0,1-.48-.47,2.33,2.33,0,0,1-.21-.9l-.2-2.94,0-.52-.53,0-2.08.26-.49.05,0,.49.06.77c0,.12,0,.2,0,.23s0,.15,0,.23a1.69,1.69,0,0,1,0,.23,1.48,1.48,0,0,1,0,.21v.23a4.2,4.2,0,0,1,0,.79,1.79,1.79,0,0,1-.57,1.11,1.86,1.86,0,0,1-1.21.34,1.89,1.89,0,0,1-1.26-.35,1.71,1.71,0,0,1-.44-1.18l-.2-2.94,0-.51-.53,0-2.09.25-.48.05,0,.49.08.77c0,.41.05.79.05,1.13a5.24,5.24,0,0,1-.05.79c-.2,1-1,1.45-2.51,1.45H25.7c-1.33,0-2-.89-2-2.68v-11L20.49,6.5v9.9q0,6,5,6h15.4A5.27,5.27,0,0,0,45,21a4,4,0,0,0,3.39,1.38A4.52,4.52,0,0,0,51.78,21a3.65,3.65,0,0,0,3.14,1.42A3.75,3.75,0,0,0,58,21.09a3.73,3.73,0,0,0,3.2,1.31h1c.32,0,.64,0,.94,0a6.14,6.14,0,0,0,.86-.12,7.1,7.1,0,0,0,.79-.22,4.87,4.87,0,0,0,.71-.3,4.12,4.12,0,0,0,.63-.39c1.32-1,2-2.61,2-4.85A13.53,13.53,0,0,0,67.44,12.49Z" transform="translate(0 -1.96)" fill="#464646"></path></g></g></svg>