<svg xmlns="http://www.w3.org/2000/svg" viewBox="0 0 113.97 37.77"><g data-name="Layer 2"><g data-name="Layer 1"><path d="M112.51 25.32a18.31 18.31 0 00-.6-14.3L106.7.04l-12.15 1a18.35 18.35 0 00-12.68 6.58l-2.8.13a1.5 1.5 0 00-1.43 1.56 1.47 1.47 0 00.17.61l1.27 2.44a18.2 18.2 0 00.62 15l5.19 10.4 11.6-.7a18.27 18.27 0 0013.32-7l2.74-.12a1.48 1.48 0 001.45-1.51 1.46 1.46 0 00-.16-.62z" fill="#fff"/><path d="M102.56 22.76a4.36 4.36 0 00.27-4.13l1.17-1.94-2-1.12a4.68 4.68 0 00-5.24-4.05 4.26 4.26 0 00-1.21.33l-1.94-1.13-1.11 1.94a4.69 4.69 0 00-4 5.26 4.92 4.92 0 00.32 1.18l-1.13 2 2 1.13a4.67 4.67 0 005.26 4 4.61 4.61 0 001.16-.3L98 27.04l1.11-2a4.37 4.37 0 003.45-2.28z" fill="#10b990"/><path d="M88.56 31.41l-.2-.37c-3.29-6.19-6.48-11.81-2.92-18a.57.57 0 00.08-.13l-6.27-3.62 1.55 3a16.73 16.73 0 00.29 14.38l4.73 9.48 2.74-4.74z" fill="#234d69"/><path d="M106.09 24.8a.83.83 0 00-.07.13 11.39 11.39 0 01-7.41 5.51 45.08 45.08 0 01-9.63 1h-.42l-2.73 4.73 10.57-.64a16.72 16.72 0 0012.6-6.96l3.36-.15z" fill="#173f58"/><path d="M101.61 8.82a11.81 11.81 0 014.48 16l6.27 3.62-1.57-3a16.72 16.72 0 00-.3-13.71l-4.75-10-4.13 7.17z" fill="#d65357"/><path d="M101.61 8.82l4.13-7.17-11.06.9a16.74 16.74 0 00-12 6.6l-3.41.15 6.27 3.63a11.82 11.82 0 0116.07-4.11z" fill="#eb5e60"/><path fill="#464646" stroke="#464646" stroke-width=".3" d="M3.756 35.772l.646-.641.648.653-.646.641zM7.55 30.6a5.88 5.88 0 01.16 1.18 1.7 1.7 0 01-.1.59.87.87 0 01-.31.4 1.28 1.28 0 01-.38.21 3.18 3.18 0 01-.53.14c-.2 0-.43.08-.69.11l-.82.05h-1a4.51 4.51 0 01-2.31-.47 1.52 1.52 0 01-.8-1.42 2.5 2.5 0 01.13-.81l-.54-.18a3.17 3.17 0 00-.22 1.14 2 2 0 00.94 1.8 5.52 5.52 0 002.9.6H4a7 7 0 003.66-.64 1.85 1.85 0 00.66-1.62 4.36 4.36 0 00-.21-1.24zM10.862 35.784l.643-.643.65.65-.643.644zM9.564 35.777l.646-.64.648.652-.646.641zM10.78 33.96h-.17a6 6 0 00.73 0 3.39 3.39 0 00.55-.13 1.11 1.11 0 00.39-.2 2 2 0 00.72-1.76 5.15 5.15 0 00-.2-1.4l-.56.14a6.14 6.14 0 01.16 1.28 1.31 1.31 0 01-.53 1.23 2.53 2.53 0 01-1.22.19h.22a1 1 0 01-.89-.39 1.75 1.75 0 01-.3-1.09v-4l-.68.21v3.8a2.49 2.49 0 00.44 1.61 1.62 1.62 0 001.3.51zM18.233 35.783l.643-.643.65.65-.643.644zM16.883 35.784l.644-.643.65.65-.643.644z"/><path d="M34.22 32.45c.28-.8.7-1.19 1.26-1.19a1 1 0 01.59.17 1.07 1.07 0 01.39.5 1.06 1.06 0 01.1.3 1.37 1.37 0 010 .35.87.87 0 01-.23.65.94.94 0 01-.66.23 2 2 0 01-1.44-.85l-.06-.07zm2.48-1.31a1.19 1.19 0 00-.19-.2l-.22-.16-.29-.11a1.31 1.31 0 00-.27-.06 1.63 1.63 0 00-.31 0c-.68 0-1.23.49-1.66 1.44a4.15 4.15 0 01-.42.74 1.27 1.27 0 01-1 .55h-.09a.94.94 0 01-.79-.34 1.67 1.67 0 01-.34-1l-.07-.83-.55.06v.17a1.72 1.72 0 010 .32v.38a1.5 1.5 0 01-.22.88.74.74 0 01-.67.32.92.92 0 01-.61-.26 1.15 1.15 0 01-.29-.73l-.07-1-.55.06V31.59s0 0 0 0v.45a2.8 2.8 0 010 .4 1.18 1.18 0 01-.21.49.84.84 0 01-.37.3 1.17 1.17 0 01-.53.1 1 1 0 01-1.07-1l-.07-1-.55.06v.67a1.38 1.38 0 010 .4 1 1 0 01-.46.67 1.7 1.7 0 01-.94.22h-3.3a1 1 0 01-.78-.28 1.23 1.23 0 01-.34-.81l-.06-1-.56.06v.79a2.32 2.32 0 010 .46c-.1.55-.6.83-1.5.83h-.59a1.25 1.25 0 01-.5-.11 1 1 0 01-.38-.31 1.59 1.59 0 01-.26-.5l-.27-.87-.57.21a6.82 6.82 0 01.27.84 3.2 3.2 0 01.09.75 2.47 2.47 0 01-.69 1.78 3.55 3.55 0 01-1.38.8h0l.29.52h0a3 3 0 002.33-2.6l.05-.32a1 1 0 00.66.43 2.19 2.19 0 00.36 0h.61a2.09 2.09 0 001.84-.83l.13.23a1.31 1.31 0 001.19.6h3.37a1.8 1.8 0 001.73-.84 1.34 1.34 0 001.36.84 1.7 1.7 0 001.47-.79 1.28 1.28 0 001.25.79 1.44 1.44 0 001.29-.98 1.22 1.22 0 001.22.88h.2a1.8 1.8 0 001.32-.69l.11-.14.12.13a2.37 2.37 0 001.74.81 1.36 1.36 0 001.1-.45 1.8 1.8 0 00.3-1.13 2 2 0 00-.45-1.36zM40.48 33.97h1.01l-.06.23c-.26 1-1.13 1.67-2.6 2l.21.54a4 4 0 002.24-1.15 3.24 3.24 0 00.72-2.35 4.5 4.5 0 00-.29-1.66 2.82 2.82 0 00-.25-.49 1.31 1.31 0 00-.7-.55 1.74 1.74 0 00-.45-.06 1.44 1.44 0 00-1.35.94 2.88 2.88 0 00-.2.56 2.78 2.78 0 00-.06.58 1.31 1.31 0 00.42 1.07 2 2 0 001.36.34zm-1.08-2.08a1.5 1.5 0 01.2-.4 1 1 0 01.29-.25.85.85 0 01.38-.09c.7 0 1.09.63 1.17 1.9v.13h-.12a3 3 0 01-.84.15 1.6 1.6 0 01-.88-.22.74.74 0 01-.31-.66 1.7 1.7 0 01.1-.59zM55.934 29.168l.622-.622.63.63-.623.622zM55.8 29.18l-.63-.63-.62.62.62.63zM56.5 27.93l-.63-.64-.63.63.63.63zM62.8 27.75l.644-.644.65.65-.643.644zM61.439 27.751l.643-.644.65.651-.643.643zM67.8 30.47l-.56.14c.05.22.09.44.12.67a4.08 4.08 0 010 .61 1.31 1.31 0 01-.52 1.23 1.88 1.88 0 01-1 .19h-.49a4.56 4.56 0 01-1.35-.18l-.3-.09.21-.17a1.92 1.92 0 00.79-1.49 1.86 1.86 0 00-1-1.63l-.2-.1-.22-.05a1 1 0 00-.24 0 1.23 1.23 0 00-.72.23 1.87 1.87 0 00-1 1.51 1.81 1.81 0 00.19.83 2.28 2.28 0 00.59.72l.2.17-.24.1a5.41 5.41 0 01-1.7.18h-.23a1 1 0 01-.79-.34 1.7 1.7 0 01-.34-.96l-.07-.83-.56.06v.87a1.44 1.44 0 01-.23.88.73.73 0 01-.66.32.91.91 0 01-.7-.25 1 1 0 01-.29-.72l-.08-1-.54.06v.22a.09.09 0 010 0v.1a.13.13 0 010 .06v.23a2.6 2.6 0 010 .4 1.18 1.18 0 01-.2.49 1 1 0 01-.38.31 1.3 1.3 0 01-.52.1 1.1 1.1 0 01-.76-.26 1 1 0 01-.31-.73l-.08-1-.55.06v.67a2.69 2.69 0 010 .4 1 1 0 01-.46.67 1.8 1.8 0 01-.94.23h-3.39a1.06 1.06 0 01-1.13-1l-.41-2.94-.54.12v.22h-.13c-1.73.53-2.6 1.28-2.6 2.23a1.11 1.11 0 000 .36 1 1 0 00.11.29 1.63 1.63 0 001.5.69 1.8 1.8 0 00.69-.13 2.07 2.07 0 00.62-.38l.2-.18.06.26a1.36 1.36 0 00.27.6 1.14 1.14 0 00.51.35 2.3 2.3 0 00.74.12h3.49a1.79 1.79 0 001.71-.84 1.38 1.38 0 001.37.84 1.74 1.74 0 001.47-.79 1.3 1.3 0 001.25.79 1.44 1.44 0 001.33-.9 1.21 1.21 0 001.21.89h.29a4.18 4.18 0 002.53-.65l.18-.09.1.07a3.86 3.86 0 002.36.65h.47a3.23 3.23 0 00.82-.1 1.61 1.61 0 00.59-.28 2 2 0 00.66-1.71 5 5 0 00-.2-1.4zm-21.37 1.5a1 1 0 01-.42.48 1.66 1.66 0 01-.88.27 1.51 1.51 0 01-.42 0 .89.89 0 01-.31-.15.55.55 0 01-.2-.25.71.71 0 01-.07-.35 1.09 1.09 0 01.5-.85 5.82 5.82 0 011.5-.74h0l.18-.06v.33l.11.7a1.28 1.28 0 01-.06.67zm16.81.64a.39.39 0 01-.23.07.57.57 0 01-.33-.13 2.67 2.67 0 01-.38-.37l-.2-.27a1.66 1.66 0 01-.1-.27.84.84 0 010-.27 1 1 0 01.36-.73 2.76 2.76 0 01.37-.31.6.6 0 01.32-.1.9.9 0 01.58.25 2.54 2.54 0 01.29.28 1.49 1.49 0 01.08.28.85.85 0 01.06.31 1.22 1.22 0 01-.37.81l-.25.27a.94.94 0 01-.23.16zM65.847 28.617l.643-.644.65.65-.643.644z" fill="#464646" stroke="#464646" stroke-width=".3"/><path d="M9.1 10.76l2.22-2.22-2.23-2.35-.19.19-2 2z" fill="#464646"/><path d="M16.84 7.33l-.49.16-2.35.76-.57.19.26.52a11.64 11.64 0 01.66 1.49 9.64 9.64 0 01.4 1.49 8.11 8.11 0 01.13 1.47 5.08 5.08 0 01-1.36 3.88 6 6 0 01-4.2 1.25 11.78 11.78 0 01-1.23-.06A9.87 9.87 0 017 18.32a6.08 6.08 0 01-.9-.28 4.23 4.23 0 01-.76-.4 4.31 4.31 0 01-.62-.51 3.23 3.23 0 01-.47-.63 3.91 3.91 0 01-.34-.75 6.31 6.31 0 01-.2-.86 7.93 7.93 0 01-.07-1 11.5 11.5 0 011-4.4l.2-.46-.5-.19-2.19-.8-.5-.19-.2.47a13.83 13.83 0 00-1.29 5.61 7.32 7.32 0 002.3 5.87q2.33 2 6.77 2a12.6 12.6 0 003.56-.45 8 8 0 002.76-1.38 6.87 6.87 0 001.9-2.28 8.22 8.22 0 00.68-1.85 8.68 8.68 0 00.23-2 15.4 15.4 0 00-1.32-6zM51.1 6.28l.15.15.14-.15 1.8-1.8.14-.13-.14-.15-1.8-1.8-.15-.15-.15.15-1.79 1.79-.15.15.15.15z" fill="#464646"/><path d="M49.07 9.68l.15.15.15-.15 1.79-1.78.06-.07.06-.06v.06l.06.05 1.8 1.8.14.15.14-.15 1.8-1.79.15-.15-.15-.14-1.8-1.8-.15-.15-.13.15-1.8 1.8-.07.06h-.06l-.07-.06-1.8-1.8-.14-.15-.14.15-1.8 1.8-.15.13.15.15zM62.39 8.73l.19.19.19-.19 1.84-1.84.19-.19-.19-.19-1.86-1.86-.19-.19-.19.19-1.84 1.85-.19.19.19.19z" fill="#464646"/><path d="M67.44 10.53l-.15-.49-.46.13-2.06.51-.49.12.12.49c.1.4.18.78.24 1.16s.12.73.15 1.08a8.47 8.47 0 01.06 1c0 1.15-.28 1.88-.83 2.2a2.21 2.21 0 01-.75.25 5.2 5.2 0 01-1.11.09h-1a1.58 1.58 0 01-1.28-.53 3.24 3.24 0 01-.55-1.81l-.2-2.39-.05-.52-.52.06-2.09.24-.48.06v.49l.07.77V15.05a2.69 2.69 0 01-.3 1.57 1 1 0 01-.94.44 1.93 1.93 0 01-.82-.15 1 1 0 01-.48-.47 2.33 2.33 0 01-.21-.9l-.2-2.94v-.52h-.53l-2.08.26-.49.05v.49l.06.77v.46a1.69 1.69 0 010 .23 1.48 1.48 0 010 .21v.23a4.2 4.2 0 010 .79 1.79 1.79 0 01-.57 1.11 1.86 1.86 0 01-1.21.34 1.89 1.89 0 01-1.26-.35 1.71 1.71 0 01-.44-1.18l-.2-2.94v-.51h-.53l-2.09.25-.48.05v.49l.08.77c0 .41.05.79.05 1.13a5.24 5.24 0 01-.05.79c-.2 1-1 1.45-2.51 1.45H25.7c-1.33 0-2-.89-2-2.68v-11l-3.21 1.25v9.9q0 6 5 6h15.4a5.27 5.27 0 004.11-1.4 4 4 0 003.39 1.38 4.52 4.52 0 003.39-1.38 3.65 3.65 0 003.14 1.42A3.75 3.75 0 0058 19.13a3.73 3.73 0 003.2 1.31h1.94a6.14 6.14 0 00.86-.12 7.1 7.1 0 00.79-.22 4.87 4.87 0 00.71-.3 4.12 4.12 0 00.63-.39c1.32-1 2-2.61 2-4.85a13.53 13.53 0 00-.69-4.03z" fill="#464646"/></g></g></svg>