<svg xmlns="http://www.w3.org/2000/svg" viewBox="0 0 384 116"><path fill="#00a2a4" d="M153.53 8.05h.05q.07-.03.08-.05c1.59-8.16 13.03-6.95 13 .99-.03 7.93-11.48 9.05-13.01.88q-.01-.02-.08-.05h-.09q-.07.03-.08.05c-1.59 8.16-13.03 6.95-13-.99.03-7.94 11.48-9.05 13.01-.88q.01.02.08.05h.04zM210.94 21.85q5.01-1.85 6.07-1.86 7.12-.08 13.67-.11 9.69-.04 13.48 1.37c19.29 7.21 19.21 33.92.13 41.34q-3.69 1.44-10.73 1.37-4.08-.04-26.56.04c-12.86.04-22.91-9.49-22.87-22.47V3.79q0-1.45 1.45-1.45h5.88q1.45 0 1.45 1.46-.03 30.88-.05 34.14-.06 6.94 1.45 9.91 2.2 4.3 6.55 6.14 2.72 1.14 8.43 1.14 14.31-.02 21.46.1 8.76.14 11.93-1.51c10.17-5.28 9.31-19.99-1.32-24.05q-2.84-1.09-9.8-.98-2.9.04-9.92.04-4.22 0-6.16.89c-6.12 2.83-5.03 9.43-5.05 14.98q0 1.47-1.47 1.47h-5.72q-1.57 0-1.57-1.57V3.75q0-1.41 1.41-1.41H209q1.44 0 1.44 1.44V21.5q0 .53.5.35z"/><rect fill="#00a2a4" x="269.92" y="2.45" width="1.48" height="112.84" rx=".73"/><path fill="#00a2a4" d="M384 84.76v4.67c-1.37 11.29-8.6 21.05-19.29 24.45q-4.67 1.48-18.05 1.48-61.56-.02-67.57-.01a2.26 2.26 0 01-1.96-3.39l3.75-6.48a2.93 2.92 14.8 012.54-1.47q36.74-.02 71.84 0c5.85 0 11.2-2.52 14.42-7.4 6.39-9.71 1.92-22.63-9.45-25.86q-2.1-.59-6.02-.6-24.64-.05-49.27 0-9.08.02-12.18-1.33-6.06-2.64-8.76-8.79-1.33-3.04-1.33-10.18-.01-6.38-.04-40.85-.01-2.29 2.02-3.34 3.16-1.65 6.1-3.05a2.22 2.22 0 013.18 2q-.01 22.89.01 46.02c.01 3.61.52 6.22 3.76 7.63q1.23.53 3.68.53 26.94.07 53.87-.02 18.11-.06 26.38 16.87 1.53 3.12 2.37 9.12zM0 44.1v-4.25q2.7-14.93 15.44-18.8 3.95-1.19 13.72-1.12 4.69.04 9.39-.02 6.42-.08 9.36.52 13.17 2.7 17.18 16.01.52 1.74.67 4.81c.26 5.46 2.64 10.1 7.62 12.43q2.72 1.27 9.47 1.32 3.83.03 17.19-.04 8.04-.04 11.81-6.09c2.81-4.5 2.87-10.35-.35-14.62-4.79-6.35-9.95-5.49-16.32-5.65q-4.64-.12-6.57.77-4.28 1.95-5.02 6.27-.29 1.72-2.04 1.72h-5.34q-1.94 0-1.61-1.92Q76.79 22.91 89.03 20q1.01-.24 10.39-.11 6.38.09 10.13 1.76c7.78 3.47 12.77 10.67 13.18 19.47q.15 3.08.68 4.63 2.04 5.99 7.3 8.23 2.52 1.08 9.31 1.13 3.79.03 9.56.04 6.3.02 8.73-1.01c6.68-2.8 9.85-9.87 7.38-16.78-2.77-7.77-12.09-10.94-19.14-6.57q-4.81 2.98-5.98 8.77-.31 1.53-.28 5.64a1.12 1.12 0 01-1.12 1.12h-6.35q-1 0-1.1-.99-1.06-10.69 5.07-17.58 7.86-8.83 18.98-7.6c14.92 1.64 23.76 17.11 17.6 30.93q-4.02 9-14.05 12.05-3.08.94-9.66.86l-9.79-.06q-8.2-.05-11.32-1.26-5.85-2.29-9.77-7.01-.41-.5-.84-.01-4.73 5.4-10.57 7.15-3.39 1.03-12.34 1.01-10.21-.02-11.7-.02-7.91.05-11.53-1.23c-8.27-2.95-14.03-10.22-14.71-19.34q-.31-4.12-.9-5.71-1.84-4.96-6.38-7.23-2.84-1.42-8.82-1.45-3.37-.03-16-.03-6.6 0-9.25 1.52c-9.93 5.72-9.04 19.8 1.84 24.07q1.95.76 6.02.78 2.18.01 6.18-.03 8.06-.1 9.62-7.66.23-1.11 1.37-1.11h6.58a.95.95 0 01.94 1.09q-1.93 12.77-13.23 15.87c-3.5.96-8.4.57-12.75.6q-2.95.02-5.1-.53Q2.66 59.67 0 44.1zM0 77.56v-.98l73.95-.07q.46 0 .58-.45c1.86-6.94 10.4-7.29 12.79-.5q.19.53.4.01 2.37-5.73 7.72-4.7 3.9.76 4.97 4.71.18.66.5.06.19-.33.55-1.21c1.49-3.59 6.07-4.78 9.35-2.73q2.32 1.46 2.97 4.46a.48.48 0 00.47.38H258.1a.48.47 86.6 01.47.42l.03.34q.07.69-.62.69H114.46q-.58 0-.72.56c-1.77 6.76-11.04 7.18-12.78.4q-.22-.86-.52-.02-1.58 4.41-5.44 4.83-5.09.55-7.24-4.76-.24-.57-.45 0-1.44 3.84-4.32 4.51-6.39 1.46-8.48-5-.14-.45-.61-.46-3.14-.11-72.86-.07-.32 0-.56-.11-.25-.13-.48-.31z"/><rect fill="#00a2a4" x="293.25" y="76.28" width="68.76" height="3.12" rx="1.54"/><rect fill="#00a2a4" x="295.51" y="85.55" width="70.74" height="3.12" rx="1.48"/><path fill="#00a2a4" d="M149.35 96.87l6.17-6.19a.42.42 0 01.72.3l-.02 3.16a.42.42 0 01-.12.29l-6.18 6.2a.42.42 0 01-.71-.3l.02-3.17a.42.42 0 01.12-.29zM224.17 94.5l-6.08 6.08a.47.47 0 01-.81-.33l.04-3.08a.47.47 0 01.14-.33l6.05-6.06a.47.47 0 01.81.33l-.01 3.06a.47.47 0 01-.14.33zM47.48 95.61c0 1.89-2.03 2.28-3.19 1.05q-.34-.35-.72-.03-.57.49-.7.57-.42.28-.86.23-.94-.11-1.46-1.06-.24-.44-.49 0c-1 1.72-3.35 1.15-3.35-.75 0-1.91 2.35-2.48 3.35-.76q.25.44.49 0 .52-.95 1.46-1.06.44-.05.86.23.13.08.7.57.38.32.72-.03c1.16-1.23 3.19-.84 3.19 1.04zM78.42 95.14q.11-.21.24-.48c.61-1.22 2.05-.99 2.78-.1q.32.38.71.08.51-.4.7-.53c1.1-.73 2.36.05 2.57 1.19a1.78 1.76 89.7 01-2.04 2.08q-.62-.11-1.28-.93-.34-.43-.61.04-.81 1.36-2.16.75-.21-.09-.54-.52-.21-.27-.26-.32a.37.35 37.8 00-.53.05c-1.35 1.89-3.93.52-3.23-1.45a1.75 1.74-76 011.91-1.15q1.27.19 1.36 1.22.06.7.38.07z"/><circle fill="#00a2a4" cx="116.41" cy="95.63" r="1.78"/><path fill="#00a2a4" d="M141.06 107.88c-3.11 2.03-7.87 1.84-9.6-1.63q-.73-1.46-.69-4.6.04-4.31.04-7.17 0-.65.65-.65h1.72q.65 0 .66.65.03 3.25 0 6.78-.02 2.47.41 3.37.96 2 3.97 1.25a2.28 2.27 83 001.72-2.21v-2.95q0-.8.8-.8h1.52a.83.83 0 01.83.83v3.17q0 .51.37.89 2.4 2.48 4.84.46.39-.32.53-.81.63-2.27 2.79-3.74.54-.36.6.28.53 5.24-2.31 7.11-3.66 2.4-7.95-.24-.46-.28-.9.01z"/><path fill="#00a2a4" d="M143.01 95.63q0 1.53-1.77 1.77-.98.13-1.49-.99-.23-.5-.52-.03c-.96 1.59-3.39 1.25-3.39-.76.01-2.01 2.44-2.34 3.39-.75q.29.47.52-.03.51-1.12 1.49-.98 1.77.24 1.77 1.77z"/><circle fill="#00a2a4" cx="188.78" cy="95.62" r="1.78"/><circle fill="#00a2a4" cx="248.08" cy="95.63" r="1.77"/><circle fill="#00a2a4" cx="193.03" cy="96.12" r="1.79"/><rect fill="#00a2a4" x="293.26" y="94.72" width="68.74" height="3.2" rx="1.58"/><path fill="#00a2a4" d="M240.11 103.57v-1.01q0-2.54-2.54-2.54h-4.37a.57.57 0 01-.57-.57v-1.82q0-.58.58-.64 5.08-.49 6.64.32 4.4 2.28 3.31 7.45c-1.18 5.54-7.2 4.44-11.45 4.41q-.61-.01-.61-.62v-1.84q0-.6.6-.6h5.87q2.54 0 2.54-2.54z"/><circle fill="#00a2a4" cx="252.54" cy="100.72" r="1.78"/><path fill="#00a2a4" d="M0 115.16v-2.88q3.2.46 4.79-.57 1.47-.94 1.42-3.82-.1-5.71-.07-7.3.02-.66.67-.66h1.7q.69 0 .67.7c-.11 3.59.13 5.99 4.71 5.46q1.29-.15 1.44-1.44.61-5.39 7.08-4.75 6.3.62 4.89 6.49-.04.17.13.15l6.58-.66a.47.47 0 00.43-.47v-4.69q0-.8.79-.8h1.51q.83 0 .83.84v3.93q0 1.45 1.44 1.3l.43-.04q1.13-.12 1.13-1.26v-3.96a.81.81 0 01.81-.81h1.54q.77 0 .77.77v4.01q0 1.51 1.5 1.36l.48-.05q1.04-.11 1.04-1.15v-4.35q0-.57.57-.57h1.78q.61 0 .68.6.33 3.2-.19 5.31c-.75 3.04-4.28 4.17-6.95 2.47q-.44-.28-.88-.01-2.73 1.66-5.17 0-.43-.3-.88-.04-1.68.97-3.16.93-2.24-.06-3.11.1-.5.1-.74.56c-.36.69-.35 1.82-.62 2.49q-1.21 3.09-5.18 3.02c-2.35-.04-4.51.29-6.2-1.52q-1.82-1.95-.98-4.53.13-.39-.27-.33-2.91.47-5.79-.16-.37-.08-.38.3-.25 7.39-9.24 6.03zm24.52-10.67a1.46 1.46 0 00-1.46-1.46H19.9a1.46 1.46 0 00-1.46 1.46v.16a1.46 1.46 0 001.46 1.46h3.16a1.46 1.46 0 001.46-1.46v-.16zm1.02 4.51q.11-.5-.39-.35-2.22.71-5.22.56-1.05-.05-1.27.98l-.08.36q-.29 1.33 1.05 1.58 2.23.41 4.78-.08.49-.09.6-.59l.53-2.46zM69.8 109.76q-.62 4.34-4.17 5.35-1.64.47-5.81.16c-4.14-.3-5.52-3.2-5.47-7.13q.06-4.32.06-4.77a.61.61 0 01.61-.62h1.73a.69.68 0 01.69.68q.01 2.35.01 5.82c0 1.51.96 2.78 2.59 2.94 2.89.28 5.77.65 6.59-2.41q.15-.58-.45-.58h-2.36q-.6 0-.6-.61v-1.81a.66.66 0 01.66-.66h7.16a1.38 1.38 0 001.38-1.38v-4.01q0-.81.81-.81h1.48q.79 0 .79.8v4.12q0 1.03 1.02 1.17.59.08.6.08 1.39-.27 1.41-1.61l.05-3.82a.75.75 0 01.75-.74h1.44q.85 0 .85.84v3.79q0 1.07 1 1.45.37.14.57.14a1.53 1.46-90 001.43-1.5l.09-4.03q.01-.68.69-.68h1.62q.69 0 .69.69.01 2.94 0 3.88c-.03 3.79-4.05 5.83-7.19 3.78q-.43-.28-.87 0-2.7 1.69-5.28-.01-.46-.31-.92 0-1.24.84-3.04.93-.53.03-.61.56zM94.8 111.11l.48-.83q.65-1.13-.66-1.13-4.39.02-5.17-3.56c-1.4-6.44 8.58-8.05 9-.75q.2 3.44-.08 5.8c-.51 4.18-4.78 5.18-8.69 4.55q-.37-.06-.37-.43v-2.02q0-.48.48-.48h3.01q1.33 0 2-1.15zm.61-6.55a1.51 1.51 0 00-1.51-1.51 1.51 1.51 0 00-1.51 1.51 1.51 1.51 0 001.51 1.51 1.51 1.51 0 001.51-1.51zM120.81 104.68q-.29 1.91 1.62 1.57 1.28-.23 1.8-.37a2.61 2.6 83.3 001.93-2.45l.07-2.96q.02-.53.55-.53h1.91q.5 0 .53.49c.33 4.4-.31 8.37-5.47 8.74q-2.09.15-4.69-.05-2.72-.21-4.62-.03-4.27.39-7.43-.24a.49.49 0 00-.59.5q.21 4.16-4.28 5.87-2.1.79-2.1-1.45v-.72q0-.56.54-.72 2.79-.77 2.79-2.74.01-5.27.04-8.85.01-.81.82-.81h1.48q.68 0 .71.69.05 1.16.03 2-.05 1.3.3 1.91 1.21 2.16 4.57 1.57.52-.09.54-.63.01-.38-.07-.83-.1-.51-.02-.8.95-3.49 4.21-3.79c2.58-.24 5.22 2.08 4.83 4.63zm-2.99-.1a1.5 1.5 0 00-1.5-1.5 1.5 1.5 0 00-1.5 1.5 1.5 1.5 0 001.5 1.5 1.5 1.5 0 001.5-1.5zM172.2 109.25q-.07.27-.1 1.04c-.08 2.63-2.4 4.68-4.6 4.99-1.5.21-5.86.33-7.55-.59q-2.72-1.48-3.02-4.19-.16-1.44-.03-7.13.02-.6.61-.6h1.8q.63 0 .63.63v5.79q0 3.03 3.03 3.03h3.06q3.1 0 3.1-3.1v-8.46q0-.73.73-.73h1.67a.66.66 0 01.66.69q-.23 4.33 1.19 5 2.53 1.2 4.16-.43c1.02-1.01.82-3.05.85-4.63q.01-.63.63-.63h1.69q.5 0 .56.5.61 4.81-1.24 6.85-2.49 2.74-7.19 1.6-.5-.12-.64.37zM187.55 109.3q-.33 5.03-4.7 5.94-.93.2-.93-.75v-1.3q0-.9.82-1.25 1.59-.68 1.63-1.96.11-3.44.09-9.26a.77.77 0 01.77-.78h1.63q.68 0 .68.68v2.94a2.33 2.31-79.2 001.46 2.16c2.65 1.07 4.62-.24 4.65-2.98q0-1.16.04-2.05.02-.77.79-.77h1.51q.69 0 .7.7.02 1.31-.02 2.82c-.11 4.7-4.1 6.56-8.49 5.4q-.59-.15-.63.46zM218.19 107.96q-1.45 1.13-3.21 1.2-2.49.11-9.95.01-2.61-.03-3.68-.52c-3-1.38-3.47-5.02-3.03-8.12q.08-.6.69-.6h1.75a.59.59 0 01.59.66q-.57 5.38 2.62 5.52 2.18.09 9.93 0 1.43-.01 2.26-.62.49-.35 1.08-1.86.8-2.03 2.68-2.91.5-.24.46.31-.16 2.54.28 3.49.64 1.39 2.23 1.56c3.74.41 3.6-2.8 3.62-5.42q.01-.73.74-.73h1.49q.64 0 .71.63.48 3.89-.36 5.29-2.79 4.69-8.06 2.87-1.48-.51-1.82-.77-.52-.39-1.02.01zM249.55 109.31q-.78 7.32-9 5.82-.25-.04-.25-.29v-2.26q0-.31.31-.31 3.12.04 3.89-.17 1.72-.47 1.82-2.44.16-3.17.09-8.88a.85.84-.7 01.85-.86h1.29q.89 0 .9.89c.01 1.57-.33 4.35 1.76 5.02q3.03.97 4.12-1.4c.45-.97.26-2.76.34-3.91a.64.63 1.9 01.64-.59h1.66q.51 0 .56.5.49 4.38-.72 6.14-2.41 3.51-7.66 2.31-.54-.13-.6.43z"/><circle fill="#00a2a4" cx="164.54" cy="107.65" r="1.77"/><circle fill="#00a2a4" cx="123" cy="113.8" r="1.77"/><path fill="#00a2a4" d="M176.23 114.64q-.08.29-.33.54c-.9.88-2.23.27-2.67-.64a1.69 1.68-29.3 01.61-2.15q1.59-1.03 2.38.55a.36.36 0 00.61.06q.93-1.24 2.12-.91a1.76 1.76 0 011.04 2.59q-.55.95-1.74.95-.53 0-1.45-1.11-.4-.5-.57.12zM223.44 113.55q.07 0 .45-.76a1.52 1.52 0 012.19-.58q.95.64.96 1.58 0 .94-.95 1.58a1.52 1.52 0 01-2.19-.56q-.38-.76-.46-.76-.07 0-.45.76a1.52 1.52 0 01-2.19.58q-.95-.64-.96-1.58 0-.94.95-1.58a1.52 1.52 0 012.19.56q.39.76.46.76z"/></svg>