<?xml version="1.0" encoding="UTF-8" standalone="no"?>
<svg xmlns="http://www.w3.org/2000/svg" version="1.1" viewBox="0.00 0.00 384.00 116.00">
  <path fill="#00a2a4" d="   M 153.53 8.05   Q 153.56 8.05 153.58 8.05   Q 153.65 8.02 153.66 8.00   C 155.25 -0.16 166.69 1.05 166.66 8.99   C 166.63 16.92 155.18 18.04 153.65 9.87   Q 153.64 9.85 153.57 9.82   Q 153.55 9.82 153.53 9.82   Q 153.50 9.82 153.48 9.82   Q 153.41 9.85 153.40 9.87   C 151.81 18.03 140.37 16.82 140.40 8.88   C 140.43 0.94 151.88 -0.17 153.41 8.00   Q 153.42 8.02 153.49 8.05   Q 153.51 8.05 153.53 8.05   Z"></path>
  <path fill="#00a2a4" d="   M 210.94 21.85   Q 215.95 20.00 217.01 19.99   Q 224.13 19.91 230.68 19.88   Q 240.37 19.84 244.16 21.25   C 263.45 28.46 263.37 55.17 244.29 62.59   Q 240.60 64.03 233.56 63.96   Q 229.48 63.92 207.00 64.00   C 194.14 64.04 184.09 54.51 184.13 41.53   Q 184.13 41.34 184.13 3.79   Q 184.13 2.34 185.58 2.34   L 191.46 2.34   Q 192.91 2.34 192.91 3.80   Q 192.88 34.68 192.86 37.94   Q 192.80 44.88 194.31 47.85   Q 196.51 52.15 200.86 53.99   Q 203.58 55.13 209.29 55.13   Q 223.60 55.11 230.75 55.23   Q 239.51 55.37 242.68 53.72   C 252.85 48.44 251.99 33.73 241.36 29.67   Q 238.52 28.58 231.56 28.69   Q 228.66 28.73 221.64 28.73   Q 217.42 28.73 215.48 29.62   C 209.36 32.45 210.45 39.05 210.43 44.60   Q 210.43 46.07 208.96 46.07   L 203.24 46.07   Q 201.67 46.07 201.67 44.50   L 201.67 3.75   Q 201.67 2.34 203.08 2.34   L 209.00 2.34   Q 210.44 2.34 210.44 3.78   L 210.44 21.50   Q 210.44 22.03 210.94 21.85   Z"></path>
  <rect fill="#00a2a4" x="269.92" y="2.45" width="1.48" height="112.84" rx="0.73"></rect>
  <path fill="#00a2a4" d="   M 384.00 84.76   L 384.00 89.43   C 382.63 100.72 375.40 110.48 364.71 113.88   Q 360.04 115.36 346.66 115.36   Q 285.10 115.34 279.09 115.35   A 2.26 2.26 0.0 0 1 277.13 111.96   L 280.88 105.48   A 2.93 2.92 14.8 0 1 283.42 104.01   Q 320.16 103.99 355.26 104.01   C 361.11 104.01 366.46 101.49 369.68 96.61   C 376.07 86.90 371.60 73.98 360.23 70.75   Q 358.13 70.16 354.21 70.15   Q 329.57 70.10 304.94 70.15   Q 295.86 70.17 292.76 68.82   Q 286.70 66.18 284.00 60.03   Q 282.67 56.99 282.67 49.85   Q 282.66 43.47 282.63 9.00   Q 282.62 6.71 284.65 5.66   Q 287.81 4.01 290.75 2.61   A 2.22 2.22 0.0 0 1 293.93 4.61   Q 293.92 27.50 293.94 50.63   C 293.95 54.24 294.46 56.85 297.70 58.26   Q 298.93 58.79 301.38 58.79   Q 328.32 58.86 355.25 58.77   Q 373.36 58.71 381.63 75.64   Q 383.16 78.76 384.00 84.76   Z"></path>
  <path fill="#00a2a4" d="   M 0.00 44.10   L 0.00 39.85   Q 2.70 24.92 15.44 21.05   Q 19.39 19.86 29.16 19.93   Q 33.85 19.97 38.55 19.91   Q 44.97 19.83 47.91 20.43   Q 61.08 23.13 65.09 36.44   Q 65.61 38.18 65.76 41.25   C 66.02 46.71 68.40 51.35 73.38 53.68   Q 76.10 54.95 82.85 55.00   Q 86.68 55.03 100.04 54.96   Q 108.08 54.92 111.85 48.87   C 114.66 44.37 114.72 38.52 111.50 34.25   C 106.71 27.90 101.55 28.76 95.18 28.60   Q 90.54 28.48 88.61 29.37   Q 84.33 31.32 83.59 35.64   Q 83.30 37.36 81.55 37.36   L 76.21 37.36   Q 74.27 37.36 74.60 35.44   Q 76.79 22.91 89.03 20.00   Q 90.04 19.76 99.42 19.89   Q 105.80 19.98 109.55 21.65   C 117.33 25.12 122.32 32.32 122.73 41.12   Q 122.88 44.20 123.41 45.75   Q 125.45 51.74 130.71 53.98   Q 133.23 55.06 140.02 55.11   Q 143.81 55.14 149.58 55.15   Q 155.88 55.17 158.31 54.14   C 164.99 51.34 168.16 44.27 165.69 37.36   C 162.92 29.59 153.60 26.42 146.55 30.79   Q 141.74 33.77 140.57 39.56   Q 140.26 41.09 140.29 45.20   A 1.12 1.12 0.0 0 1 139.17 46.32   L 132.82 46.32   Q 131.82 46.32 131.72 45.33   Q 130.66 34.64 136.79 27.75   Q 144.65 18.92 155.77 20.15   C 170.69 21.79 179.53 37.26 173.37 51.08   Q 169.35 60.08 159.32 63.13   Q 156.24 64.07 149.66 63.99   Q 149.53 63.99 139.87 63.93   Q 131.67 63.88 128.55 62.67   Q 122.70 60.38 118.78 55.66   Q 118.37 55.16 117.94 55.65   Q 113.21 61.05 107.37 62.80   Q 103.98 63.83 95.03 63.81   Q 84.82 63.79 83.33 63.79   Q 75.42 63.84 71.80 62.56   C 63.53 59.61 57.77 52.34 57.09 43.22   Q 56.78 39.10 56.19 37.51   Q 54.35 32.55 49.81 30.28   Q 46.97 28.86 40.99 28.83   Q 37.62 28.80 24.99 28.80   Q 18.39 28.80 15.74 30.32   C 5.81 36.04 6.70 50.12 17.58 54.39   Q 19.53 55.15 23.60 55.17   Q 25.78 55.18 29.78 55.14   Q 37.84 55.04 39.40 47.48   Q 39.63 46.37 40.77 46.37   L 47.35 46.37   A 0.95 0.95 0.0 0 1 48.29 47.46   Q 46.36 60.23 35.06 63.33   C 31.56 64.29 26.66 63.90 22.31 63.93   Q 19.36 63.95 17.21 63.40   Q 2.66 59.67 0.00 44.10   Z"></path>
  <path fill="#00a2a4" d="   M 0.00 77.56   L 0.00 76.58   L 73.95 76.51   Q 74.41 76.51 74.53 76.06   C 76.39 69.12 84.93 68.77 87.32 75.56   Q 87.51 76.09 87.72 75.57   Q 90.09 69.84 95.44 70.87   Q 99.34 71.63 100.41 75.58   Q 100.59 76.24 100.91 75.64   Q 101.10 75.31 101.46 74.43   C 102.95 70.84 107.53 69.65 110.81 71.70   Q 113.13 73.16 113.78 76.16   A 0.48 0.48 0.0 0 0 114.25 76.54   L 258.10 76.54   A 0.48 0.47 86.6 0 1 258.57 76.96   L 258.60 77.30   Q 258.67 77.99 257.98 77.99   L 114.46 77.99   Q 113.88 77.99 113.74 78.55   C 111.97 85.31 102.70 85.73 100.96 78.95   Q 100.74 78.09 100.44 78.93   Q 98.86 83.34 95.00 83.76   Q 89.91 84.31 87.76 79.00   Q 87.52 78.43 87.31 79.00   Q 85.87 82.84 82.99 83.51   Q 76.60 84.97 74.51 78.51   Q 74.37 78.06 73.90 78.05   Q 70.76 77.94 1.04 77.98   Q 0.72 77.98 0.48 77.87   Q 0.23 77.74 0.00 77.56   Z"></path>
  <rect fill="#00a2a4" x="293.25" y="76.28" width="68.76" height="3.12" rx="1.54"></rect>
  <rect fill="#00a2a4" x="295.51" y="85.55" width="70.74" height="3.12" rx="1.48"></rect>
  <path fill="#00a2a4" d="   M 149.35 96.87   L 155.52 90.68   A 0.42 0.42 0.0 0 1 156.24 90.98   L 156.22 94.14   A 0.42 0.42 0.0 0 1 156.10 94.43   L 149.92 100.63   A 0.42 0.42 0.0 0 1 149.21 100.33   L 149.23 97.16   A 0.42 0.42 0.0 0 1 149.35 96.87   Z"></path>
  <path fill="#00a2a4" d="   M 224.17 94.50   L 218.09 100.58   A 0.47 0.47 0.0 0 1 217.28 100.25   L 217.32 97.17   A 0.47 0.47 0.0 0 1 217.46 96.84   L 223.51 90.78   A 0.47 0.47 0.0 0 1 224.32 91.11   L 224.31 94.17   A 0.47 0.47 0.0 0 1 224.17 94.50   Z"></path>
  <path fill="#00a2a4" d="   M 47.48 95.61   C 47.48 97.50 45.45 97.89 44.29 96.66   Q 43.95 96.31 43.57 96.63   Q 43.00 97.12 42.87 97.20   Q 42.45 97.48 42.01 97.43   Q 41.07 97.32 40.55 96.37   Q 40.31 95.93 40.06 96.37   C 39.06 98.09 36.71 97.52 36.71 95.62   C 36.71 93.71 39.06 93.14 40.06 94.86   Q 40.31 95.30 40.55 94.86   Q 41.07 93.91 42.01 93.80   Q 42.45 93.75 42.87 94.03   Q 43.00 94.11 43.57 94.60   Q 43.95 94.92 44.29 94.57   C 45.45 93.34 47.48 93.73 47.48 95.61   Z"></path>
  <path fill="#00a2a4" d="   M 78.42 95.14   Q 78.53 94.93 78.66 94.66   C 79.27 93.44 80.71 93.67 81.44 94.56   Q 81.76 94.94 82.15 94.64   Q 82.66 94.24 82.85 94.11   C 83.95 93.38 85.21 94.16 85.42 95.30   A 1.78 1.76 89.7 0 1 83.38 97.38   Q 82.76 97.27 82.10 96.45   Q 81.76 96.02 81.49 96.49   Q 80.68 97.85 79.33 97.24   Q 79.12 97.15 78.79 96.72   Q 78.58 96.45 78.53 96.40   A 0.37 0.35 37.8 0 0 78.00 96.45   C 76.65 98.34 74.07 96.97 74.77 95.00   A 1.75 1.74 -76.0 0 1 76.68 93.85   Q 77.95 94.04 78.04 95.07   Q 78.10 95.77 78.42 95.14   Z"></path>
  <circle fill="#00a2a4" cx="116.41" cy="95.63" r="1.78"></circle>
  <path fill="#00a2a4" d="   M 141.06 107.88   C 137.95 109.91 133.19 109.72 131.46 106.25   Q 130.73 104.79 130.77 101.65   Q 130.81 97.34 130.81 94.48   Q 130.81 93.83 131.46 93.83   L 133.18 93.83   Q 133.83 93.83 133.84 94.48   Q 133.87 97.73 133.84 101.26   Q 133.82 103.73 134.25 104.63   Q 135.21 106.63 138.22 105.88   A 2.28 2.27 83.0 0 0 139.94 103.67   L 139.94 100.72   Q 139.94 99.92 140.74 99.92   L 142.26 99.92   A 0.83 0.83 0.0 0 1 143.09 100.75   L 143.09 103.92   Q 143.09 104.43 143.46 104.81   Q 145.86 107.29 148.30 105.27   Q 148.69 104.95 148.83 104.46   Q 149.46 102.19 151.62 100.72   Q 152.16 100.36 152.22 101.00   Q 152.75 106.24 149.91 108.11   Q 146.25 110.51 141.96 107.87   Q 141.50 107.59 141.06 107.88   Z"></path>
  <path fill="#00a2a4" d="   M 143.01 95.63   Q 143.01 97.16 141.24 97.40   Q 140.26 97.53 139.75 96.41   Q 139.52 95.91 139.23 96.38   C 138.27 97.97 135.84 97.63 135.84 95.62   C 135.85 93.61 138.28 93.28 139.23 94.87   Q 139.52 95.34 139.75 94.84   Q 140.26 93.72 141.24 93.86   Q 143.01 94.10 143.01 95.63   Z"></path>
  <circle fill="#00a2a4" cx="188.78" cy="95.62" r="1.78"></circle>
  <circle fill="#00a2a4" cx="248.08" cy="95.63" r="1.77"></circle>
  <circle fill="#00a2a4" cx="193.03" cy="96.12" r="1.79"></circle>
  <rect fill="#00a2a4" x="293.26" y="94.72" width="68.74" height="3.20" rx="1.58"></rect>
  <path fill="#00a2a4" d="   M 240.11 103.57   L 240.11 102.56   Q 240.11 100.02 237.57 100.02   L 233.20 100.02   A 0.57 0.57 0.0 0 1 232.63 99.45   L 232.63 97.63   Q 232.63 97.05 233.21 96.99   Q 238.29 96.50 239.85 97.31   Q 244.25 99.59 243.16 104.76   C 241.98 110.30 235.96 109.20 231.71 109.17   Q 231.10 109.16 231.10 108.55   L 231.10 106.71   Q 231.10 106.11 231.70 106.11   L 237.57 106.11   Q 240.11 106.11 240.11 103.57   Z"></path>
  <circle fill="#00a2a4" cx="252.54" cy="100.72" r="1.78"></circle>
  <path fill="#00a2a4" d="   M 0.00 115.16   L 0.00 112.28   Q 3.20 112.74 4.79 111.71   Q 6.26 110.77 6.21 107.89   Q 6.11 102.18 6.14 100.59   Q 6.16 99.93 6.81 99.93   L 8.51 99.93   Q 9.20 99.93 9.18 100.63   C 9.07 104.22 9.31 106.62 13.89 106.09   Q 15.18 105.94 15.33 104.65   Q 15.94 99.26 22.41 99.90   Q 28.71 100.52 27.30 106.39   Q 27.26 106.56 27.43 106.54   L 34.01 105.88   A 0.47 0.47 0.0 0 0 34.44 105.41   L 34.44 100.72   Q 34.44 99.92 35.23 99.92   L 36.74 99.92   Q 37.57 99.92 37.57 100.76   L 37.57 104.69   Q 37.57 106.14 39.01 105.99   L 39.44 105.95   Q 40.57 105.83 40.57 104.69   L 40.57 100.73   A 0.81 0.81 0.0 0 1 41.38 99.92   L 42.92 99.92   Q 43.69 99.92 43.69 100.69   L 43.69 104.70   Q 43.69 106.21 45.19 106.06   L 45.67 106.01   Q 46.71 105.90 46.71 104.86   L 46.71 100.51   Q 46.71 99.94 47.28 99.94   L 49.06 99.94   Q 49.67 99.94 49.74 100.54   Q 50.07 103.74 49.55 105.85   C 48.80 108.89 45.27 110.02 42.60 108.32   Q 42.16 108.04 41.72 108.31   Q 38.99 109.97 36.55 108.31   Q 36.12 108.01 35.67 108.27   Q 33.99 109.24 32.51 109.20   Q 30.27 109.14 29.40 109.30   Q 28.90 109.40 28.66 109.86   C 28.30 110.55 28.31 111.68 28.04 112.35   Q 26.83 115.44 22.86 115.37   C 20.51 115.33 18.35 115.66 16.66 113.85   Q 14.84 111.90 15.68 109.32   Q 15.81 108.93 15.41 108.99   Q 12.50 109.46 9.62 108.83   Q 9.25 108.75 9.24 109.13   Q 8.99 116.52 0.00 115.16   Z   M 24.52 104.49   A 1.46 1.46 0.0 0 0 23.06 103.03   L 19.90 103.03   A 1.46 1.46 0.0 0 0 18.44 104.49   L 18.44 104.65   A 1.46 1.46 0.0 0 0 19.90 106.11   L 23.06 106.11   A 1.46 1.46 0.0 0 0 24.52 104.65   L 24.52 104.49   Z   M 25.54 109.00   Q 25.65 108.50 25.15 108.65   Q 22.93 109.36 19.93 109.21   Q 18.88 109.16 18.66 110.19   L 18.58 110.55   Q 18.29 111.88 19.63 112.13   Q 21.86 112.54 24.41 112.05   Q 24.90 111.96 25.01 111.46   L 25.54 109.00   Z"></path>
  <path fill="#00a2a4" d="   M 69.80 109.76   Q 69.18 114.10 65.63 115.11   Q 63.99 115.58 59.82 115.27   C 55.68 114.97 54.30 112.07 54.35 108.14   Q 54.41 103.82 54.41 103.37   A 0.61 0.61 0.0 0 1 55.02 102.75   L 56.75 102.75   A 0.69 0.68 0.0 0 1 57.44 103.43   Q 57.45 105.78 57.45 109.25   C 57.45 110.76 58.41 112.03 60.04 112.19   C 62.93 112.47 65.81 112.84 66.63 109.78   Q 66.78 109.20 66.18 109.20   L 63.82 109.20   Q 63.22 109.20 63.22 108.59   L 63.22 106.78   A 0.66 0.66 0.0 0 1 63.88 106.12   L 71.04 106.12   A 1.38 1.38 0.0 0 0 72.42 104.74   L 72.42 100.73   Q 72.42 99.92 73.23 99.92   L 74.71 99.92   Q 75.50 99.92 75.50 100.72   L 75.50 104.84   Q 75.50 105.87 76.52 106.01   Q 77.11 106.09 77.12 106.09   Q 78.51 105.82 78.53 104.48   L 78.58 100.66   A 0.75 0.75 0.0 0 1 79.33 99.92   L 80.77 99.92   Q 81.62 99.92 81.62 100.76   L 81.62 104.55   Q 81.62 105.62 82.62 106.00   Q 82.99 106.14 83.19 106.14   A 1.53 1.46 -90.0 0 0 84.62 104.64   L 84.71 100.61   Q 84.72 99.93 85.40 99.93   L 87.02 99.93   Q 87.71 99.93 87.71 100.62   Q 87.72 103.56 87.71 104.50   C 87.68 108.29 83.66 110.33 80.52 108.28   Q 80.09 108.00 79.65 108.28   Q 76.95 109.97 74.37 108.27   Q 73.91 107.96 73.45 108.27   Q 72.21 109.11 70.41 109.20   Q 69.88 109.23 69.80 109.76   Z"></path>
  <path fill="#00a2a4" d="   M 94.80 111.11   L 95.28 110.28   Q 95.93 109.15 94.62 109.15   Q 90.23 109.17 89.45 105.59   C 88.05 99.15 98.03 97.54 98.45 104.84   Q 98.65 108.28 98.37 110.64   C 97.86 114.82 93.59 115.82 89.68 115.19   Q 89.31 115.13 89.31 114.76   L 89.31 112.74   Q 89.31 112.26 89.79 112.26   L 92.80 112.26   Q 94.13 112.26 94.80 111.11   Z   M 95.41 104.56   A 1.51 1.51 0.0 0 0 93.90 103.05   A 1.51 1.51 0.0 0 0 92.39 104.56   A 1.51 1.51 0.0 0 0 93.90 106.07   A 1.51 1.51 0.0 0 0 95.41 104.56   Z"></path>
  <path fill="#00a2a4" d="   M 120.81 104.68   Q 120.52 106.59 122.43 106.25   Q 123.71 106.02 124.23 105.88   A 2.61 2.60 83.3 0 0 126.16 103.43   L 126.23 100.47   Q 126.25 99.94 126.78 99.94   L 128.69 99.94   Q 129.19 99.94 129.22 100.43   C 129.55 104.83 128.91 108.80 123.75 109.17   Q 121.66 109.32 119.06 109.12   Q 116.34 108.91 114.44 109.09   Q 110.17 109.48 107.01 108.85   A 0.49 0.49 0.0 0 0 106.42 109.35   Q 106.63 113.51 102.14 115.22   Q 100.04 116.01 100.04 113.77   L 100.04 113.05   Q 100.04 112.49 100.58 112.33   Q 103.37 111.56 103.37 109.59   Q 103.38 104.32 103.41 100.74   Q 103.42 99.93 104.23 99.93   L 105.71 99.93   Q 106.39 99.93 106.42 100.62   Q 106.47 101.78 106.45 102.62   Q 106.40 103.92 106.75 104.53   Q 107.96 106.69 111.32 106.10   Q 111.84 106.01 111.86 105.47   Q 111.87 105.09 111.79 104.64   Q 111.69 104.13 111.77 103.84   Q 112.72 100.35 115.98 100.05   C 118.56 99.81 121.20 102.13 120.81 104.68   Z   M 117.82 104.58   A 1.50 1.50 0.0 0 0 116.32 103.08   A 1.50 1.50 0.0 0 0 114.82 104.58   A 1.50 1.50 0.0 0 0 116.32 106.08   A 1.50 1.50 0.0 0 0 117.82 104.58   Z"></path>
  <path fill="#00a2a4" d="   M 172.20 109.25   Q 172.13 109.52 172.10 110.29   C 172.02 112.92 169.70 114.97 167.50 115.28   C 166.00 115.49 161.64 115.61 159.95 114.69   Q 157.23 113.21 156.93 110.50   Q 156.77 109.06 156.90 103.37   Q 156.92 102.77 157.51 102.77   L 159.31 102.77   Q 159.94 102.77 159.94 103.40   L 159.94 109.19   Q 159.94 112.22 162.97 112.22   L 166.03 112.22   Q 169.13 112.22 169.13 109.12   L 169.13 100.66   Q 169.13 99.93 169.86 99.93   L 171.53 99.93   A 0.66 0.66 0.0 0 1 172.19 100.62   Q 171.96 104.95 173.38 105.62   Q 175.91 106.82 177.54 105.19   C 178.56 104.18 178.36 102.14 178.39 100.56   Q 178.40 99.93 179.02 99.93   L 180.71 99.93   Q 181.21 99.93 181.27 100.43   Q 181.88 105.24 180.03 107.28   Q 177.54 110.02 172.84 108.88   Q 172.34 108.76 172.20 109.25   Z"></path>
  <path fill="#00a2a4" d="   M 187.55 109.30   Q 187.22 114.33 182.85 115.24   Q 181.92 115.44 181.92 114.49   L 181.92 113.19   Q 181.92 112.29 182.74 111.94   Q 184.33 111.26 184.37 109.98   Q 184.48 106.54 184.46 100.72   A 0.77 0.77 0.0 0 1 185.23 99.94   L 186.86 99.94   Q 187.54 99.94 187.54 100.62   L 187.54 103.56   A 2.33 2.31 -79.2 0 0 189.00 105.72   C 191.65 106.79 193.62 105.48 193.65 102.74   Q 193.65 101.58 193.69 100.69   Q 193.71 99.92 194.48 99.92   L 195.99 99.92   Q 196.68 99.92 196.69 100.62   Q 196.71 101.93 196.67 103.44   C 196.56 108.14 192.57 110.00 188.18 108.84   Q 187.59 108.69 187.55 109.30   Z"></path>
  <path fill="#00a2a4" d="   M 218.19 107.96   Q 216.74 109.09 214.98 109.16   Q 212.49 109.27 205.03 109.17   Q 202.42 109.14 201.35 108.65   C 198.35 107.27 197.88 103.63 198.32 100.53   Q 198.40 99.93 199.01 99.93   L 200.76 99.93   A 0.59 0.59 0.0 0 1 201.35 100.59   Q 200.78 105.97 203.97 106.11   Q 206.15 106.20 213.90 106.11   Q 215.33 106.10 216.16 105.49   Q 216.65 105.14 217.24 103.63   Q 218.04 101.60 219.92 100.72   Q 220.42 100.48 220.38 101.03   Q 220.22 103.57 220.66 104.52   Q 221.30 105.91 222.89 106.08   C 226.63 106.49 226.49 103.28 226.51 100.66   Q 226.52 99.93 227.25 99.93   L 228.74 99.93   Q 229.38 99.93 229.45 100.56   Q 229.93 104.45 229.09 105.85   Q 226.30 110.54 221.03 108.72   Q 219.55 108.21 219.21 107.95   Q 218.69 107.56 218.19 107.96   Z"></path>
  <path fill="#00a2a4" d="   M 249.55 109.31   Q 248.77 116.63 240.55 115.13   Q 240.30 115.09 240.30 114.84   L 240.30 112.58   Q 240.30 112.27 240.61 112.27   Q 243.73 112.31 244.50 112.10   Q 246.22 111.63 246.32 109.66   Q 246.48 106.49 246.41 100.78   A 0.85 0.84 -0.7 0 1 247.26 99.92   L 248.55 99.92   Q 249.44 99.92 249.45 100.81   C 249.46 102.38 249.12 105.16 251.21 105.83   Q 254.24 106.80 255.33 104.43   C 255.78 103.46 255.59 101.67 255.67 100.52   A 0.64 0.63 1.9 0 1 256.31 99.93   L 257.97 99.93   Q 258.48 99.93 258.53 100.43   Q 259.02 104.81 257.81 106.57   Q 255.40 110.08 250.15 108.88   Q 249.61 108.75 249.55 109.31   Z"></path>
  <circle fill="#00a2a4" cx="164.54" cy="107.65" r="1.77"></circle>
  <circle fill="#00a2a4" cx="123.00" cy="113.80" r="1.77"></circle>
  <path fill="#00a2a4" d="   M 176.23 114.64   Q 176.15 114.93 175.90 115.18   C 175.00 116.06 173.67 115.45 173.23 114.54   A 1.69 1.68 -29.3 0 1 173.84 112.39   Q 175.43 111.36 176.22 112.94   A 0.36 0.36 0.0 0 0 176.83 113.00   Q 177.76 111.76 178.95 112.09   A 1.76 1.76 0.0 0 1 179.99 114.68   Q 179.44 115.63 178.25 115.63   Q 177.72 115.63 176.80 114.52   Q 176.40 114.02 176.23 114.64   Z"></path>
  <path fill="#00a2a4" d="   M 223.44 113.55   Q 223.51 113.55 223.89 112.79   A 1.52 1.52 0.0 0 1 226.08 112.21   Q 227.03 112.85 227.04 113.79   Q 227.04 114.73 226.09 115.37   A 1.52 1.52 0.0 0 1 223.90 114.81   Q 223.52 114.05 223.44 114.05   Q 223.37 114.05 222.99 114.81   A 1.52 1.52 0.0 0 1 220.80 115.39   Q 219.85 114.75 219.84 113.81   Q 219.84 112.87 220.79 112.23   A 1.52 1.52 0.0 0 1 222.98 112.79   Q 223.37 113.55 223.44 113.55   Z"></path>
</svg>
